<?xml version="1.0" encoding="UTF-8" standalone="no"?>
<!DOCTYPE svg PUBLIC "-//W3C//DTD SVG 1.1//EN"
 "http://www.w3.org/Graphics/SVG/1.1/DTD/svg11.dtd">
<!-- Generated by graphviz version 2.40.1 (20161225.0304)
 -->
<!-- Title: doushu Pages: 1 -->
<svg width="131pt" height="360pt"
 viewBox="0.00 0.00 130.88 360.00" xmlns="http://www.w3.org/2000/svg" xmlns:xlink="http://www.w3.org/1999/xlink">
<g id="graph0" class="graph" transform="scale(.1161 .1161) rotate(0) translate(4 3096.1358)">
<title>doushu</title>
<polygon fill="#ffffff" stroke="transparent" points="-4,4 -4,-3096.1358 1123.0889,-3096.1358 1123.0889,4 -4,4"/>
<!-- 紫微 -->
<g id="node1" class="node">
<title>紫微</title>
<ellipse fill="none" stroke="#000000" cx="846.1657" cy="-2590.6139" rx="30.7933" ry="30.7933"/>
<ellipse fill="none" stroke="#000000" cx="846.1657" cy="-2590.6139" rx="34.7808" ry="34.7808"/>
<text text-anchor="middle" x="846.1657" y="-2586.4139" font-family="Times,serif" font-size="14.00" fill="#000000">紫微</text>
</g>
<!-- 天府 -->
<g id="node14" class="node">
<title>天府</title>
<ellipse fill="none" stroke="#000000" cx="972.2811" cy="-2787.6139" rx="25.8302" ry="25.8302"/>
<text text-anchor="middle" x="972.2811" y="-2783.4139" font-family="Times,serif" font-size="14.00" fill="#000000">天府</text>
</g>
<!-- 紫微&#45;&gt;天府 -->
<g id="edge14" class="edge">
<title>紫微&#45;&gt;天府</title>
<path fill="none" stroke="#000000" d="M861.1106,-2622.4585C877.7675,-2656.4623 906.6166,-2711.1822 938.7178,-2753.6139 940.9509,-2756.5656 943.4254,-2759.5215 945.9892,-2762.3902"/>
<polygon fill="#000000" stroke="#000000" points="943.4797,-2764.8307 952.8799,-2769.7181 948.5792,-2760.0354 943.4797,-2764.8307"/>
</g>
<!-- 太阳 -->
<g id="node15" class="node">
<title>太阳</title>
<ellipse fill="none" stroke="#000000" cx="972.2811" cy="-2710.6139" rx="33.6266" ry="33.6266"/>
<text text-anchor="middle" x="972.2811" y="-2706.4139" font-family="Times,serif" font-size="14.00" fill="#000000">太阳</text>
</g>
<!-- 紫微&#45;&gt;太阳 -->
<g id="edge15" class="edge">
<title>紫微&#45;&gt;太阳</title>
<path fill="none" stroke="#000000" d="M871.687,-2614.8976C891.4307,-2633.684 918.8935,-2659.815 940.1367,-2680.0282"/>
<polygon fill="#000000" stroke="#000000" points="937.9988,-2682.8252 947.656,-2687.1829 942.8241,-2677.754 937.9988,-2682.8252"/>
</g>
<!-- 武曲 -->
<g id="node16" class="node">
<title>武曲</title>
<ellipse fill="none" stroke="#000000" cx="972.2811" cy="-2627.6139" rx="31.3027" ry="31.3027"/>
<text text-anchor="middle" x="972.2811" y="-2623.4139" font-family="Times,serif" font-size="14.00" fill="#000000">武曲</text>
</g>
<!-- 紫微&#45;&gt;武曲 -->
<g id="edge16" class="edge">
<title>紫微&#45;&gt;武曲</title>
<path fill="none" stroke="#000000" d="M879.9623,-2600.5292C896.1862,-2605.289 915.7307,-2611.023 932.6514,-2615.9872"/>
<polygon fill="#000000" stroke="#000000" points="931.6851,-2619.3512 942.266,-2618.808 933.6558,-2612.6343 931.6851,-2619.3512"/>
</g>
<!-- 天机 -->
<g id="node17" class="node">
<title>天机</title>
<ellipse fill="none" stroke="#000000" cx="972.2811" cy="-2552.6139" rx="25.8302" ry="25.8302"/>
<text text-anchor="middle" x="972.2811" y="-2548.4139" font-family="Times,serif" font-size="14.00" fill="#000000">天机</text>
</g>
<!-- 紫微&#45;&gt;天机 -->
<g id="edge17" class="edge">
<title>紫微&#45;&gt;天机</title>
<path fill="none" stroke="#000000" d="M879.6312,-2580.5303C897.61,-2575.1131 919.7394,-2568.4452 937.8619,-2562.9847"/>
<polygon fill="#000000" stroke="#000000" points="938.9008,-2566.3272 947.4658,-2560.091 936.8813,-2559.6248 938.9008,-2566.3272"/>
</g>
<!-- 天同 -->
<g id="node18" class="node">
<title>天同</title>
<ellipse fill="none" stroke="#000000" cx="972.2811" cy="-2484.6139" rx="24.085" ry="24.085"/>
<text text-anchor="middle" x="972.2811" y="-2480.4139" font-family="Times,serif" font-size="14.00" fill="#000000">天同</text>
</g>
<!-- 紫微&#45;&gt;天同 -->
<g id="edge18" class="edge">
<title>紫微&#45;&gt;天同</title>
<path fill="none" stroke="#000000" d="M872.9115,-2568.134C894.4538,-2550.0277 924.5731,-2524.7124 945.9928,-2506.7092"/>
<polygon fill="#000000" stroke="#000000" points="948.3368,-2509.3111 953.7401,-2500.1976 943.8329,-2503.9524 948.3368,-2509.3111"/>
</g>
<!-- 廉贞 -->
<g id="node19" class="node">
<title>廉贞</title>
<ellipse fill="none" stroke="#000000" cx="972.2811" cy="-2411.6139" rx="31.3429" ry="31.3429"/>
<text text-anchor="middle" x="972.2811" y="-2407.4139" font-family="Times,serif" font-size="14.00" fill="#000000">廉贞</text>
</g>
<!-- 紫微&#45;&gt;廉贞 -->
<g id="edge19" class="edge">
<title>紫微&#45;&gt;廉贞</title>
<path fill="none" stroke="#000000" d="M864.5708,-2560.9478C882.6228,-2532.3534 911.3469,-2488.1636 938.7178,-2451.6139 940.7912,-2448.8452 942.9921,-2446.0132 945.2365,-2443.1984"/>
<polygon fill="#000000" stroke="#000000" points="948.0052,-2445.3413 951.607,-2435.3774 942.5778,-2440.9204 948.0052,-2445.3413"/>
</g>
<!-- 年 -->
<g id="node2" class="node">
<title>年</title>
<ellipse fill="none" stroke="#000000" cx="20.2386" cy="-1506.6139" rx="20.3045" ry="20.3045"/>
<text text-anchor="middle" x="20.2386" y="-1502.4139" font-family="Times,serif" font-size="14.00" fill="#000000">年</text>
</g>
<!-- 年干 -->
<g id="node3" class="node">
<title>年干</title>
<ellipse fill="none" stroke="#000000" cx="185.426" cy="-886.6139" rx="31.8633" ry="31.8633"/>
<text text-anchor="middle" x="185.426" y="-882.4139" font-family="Times,serif" font-size="14.00" fill="#000000">年干</text>
</g>
<!-- 年&#45;&gt;年干 -->
<g id="edge1" class="edge">
<title>年&#45;&gt;年干</title>
<path fill="none" stroke="#000000" d="M25.4552,-1487.0345C48.6088,-1400.1317 142.3519,-1048.2845 174.5248,-927.5296"/>
<polygon fill="#000000" stroke="#000000" points="177.9851,-928.1363 177.1777,-917.5723 171.2211,-926.3341 177.9851,-928.1363"/>
</g>
<!-- 年支 -->
<g id="node4" class="node">
<title>年支</title>
<ellipse fill="none" stroke="#000000" cx="185.426" cy="-1610.6139" rx="30.1977" ry="30.1977"/>
<text text-anchor="middle" x="185.426" y="-1606.4139" font-family="Times,serif" font-size="14.00" fill="#000000">年支</text>
</g>
<!-- 年&#45;&gt;年支 -->
<g id="edge2" class="edge">
<title>年&#45;&gt;年支</title>
<path fill="none" stroke="#000000" d="M37.2944,-1517.352C63.9302,-1534.1215 115.9457,-1566.8699 150.6976,-1588.7493"/>
<polygon fill="#000000" stroke="#000000" points="149.2428,-1591.9692 159.5701,-1594.3353 152.9724,-1586.0455 149.2428,-1591.9692"/>
</g>
<!-- 天干 -->
<g id="node5" class="node">
<title>天干</title>
<ellipse fill="none" stroke="#000000" cx="559.1888" cy="-811.6139" rx="28.1594" ry="28.1594"/>
<text text-anchor="middle" x="559.1888" y="-807.4139" font-family="Times,serif" font-size="14.00" fill="#000000">天干</text>
</g>
<!-- 年干&#45;&gt;天干 -->
<g id="edge3" class="edge">
<title>年干&#45;&gt;天干</title>
<path fill="none" stroke="#000000" d="M216.4879,-879.8278C252.2156,-872.0699 312.6569,-859.0913 364.764,-848.6139 419.0331,-837.7017 481.9963,-825.8706 521.2188,-818.5988"/>
<polygon fill="#000000" stroke="#000000" points="521.9458,-822.0238 531.1419,-816.7624 520.6719,-815.1406 521.9458,-822.0238"/>
<text text-anchor="middle" x="329.0694" y="-862.8139" font-family="Times,serif" font-size="14.00" fill="#000000">寅首</text>
</g>
<!-- 五行局 -->
<g id="node11" class="node">
<title>五行局</title>
<ellipse fill="none" stroke="#000000" cx="559.1888" cy="-1256.6139" rx="41.1748" ry="41.1748"/>
<text text-anchor="middle" x="559.1888" y="-1252.4139" font-family="Times,serif" font-size="14.00" fill="#000000">五行局</text>
</g>
<!-- 年干&#45;&gt;五行局 -->
<g id="edge9" class="edge">
<title>年干&#45;&gt;五行局</title>
<path fill="none" stroke="#000000" d="M197.2972,-916.1098C221.2053,-972.211 280.1874,-1095.2246 364.764,-1168.6139 406.9928,-1205.2569 466.993,-1229.2775 509.1404,-1242.8244"/>
<polygon fill="#000000" stroke="#000000" points="508.3256,-1246.2368 518.9145,-1245.8817 510.4154,-1239.556 508.3256,-1246.2368"/>
</g>
<!-- 阴阳 -->
<g id="node12" class="node">
<title>阴阳</title>
<ellipse fill="none" stroke="#000000" cx="559.1888" cy="-970.6139" rx="37.1008" ry="37.1008"/>
<text text-anchor="middle" x="559.1888" y="-966.4139" font-family="Times,serif" font-size="14.00" fill="#000000">阴阳</text>
</g>
<!-- 年干&#45;&gt;阴阳 -->
<g id="edge11" class="edge">
<title>年干&#45;&gt;阴阳</title>
<path fill="none" stroke="#000000" d="M216.6499,-893.6312C282.4708,-908.4239 435.7395,-942.8697 512.9668,-960.2259"/>
<polygon fill="#000000" stroke="#000000" points="512.37,-963.679 522.8942,-962.4569 513.905,-956.8493 512.37,-963.679"/>
</g>
<!-- 禄存 -->
<g id="node38" class="node">
<title>禄存</title>
<ellipse fill="none" stroke="#000000" cx="559.1888" cy="-886.6139" rx="28.9754" ry="28.9754"/>
<text text-anchor="middle" x="559.1888" y="-882.4139" font-family="Times,serif" font-size="14.00" fill="#000000">禄存</text>
</g>
<!-- 年干&#45;&gt;禄存 -->
<g id="edge43" class="edge">
<title>年干&#45;&gt;禄存</title>
<path fill="none" stroke="#000000" d="M217.2928,-886.6139C285.5225,-886.6139 445.5643,-886.6139 519.9273,-886.6139"/>
<polygon fill="#000000" stroke="#000000" points="520.2561,-890.1139 530.256,-886.6139 520.256,-883.1139 520.2561,-890.1139"/>
</g>
<!-- 干系诸星（擎羊、陀罗、天魁、天钺等） -->
<g id="node39" class="node">
<title>干系诸星（擎羊、陀罗、天魁、天钺等）</title>
<ellipse fill="none" stroke="#000000" cx="559.1888" cy="-495.6139" rx="194.3496" ry="194.3496"/>
<text text-anchor="middle" x="559.1888" y="-491.4139" font-family="Times,serif" font-size="14.00" fill="#000000">干系诸星（擎羊、陀罗、天魁、天钺等）</text>
</g>
<!-- 年干&#45;&gt;干系诸星（擎羊、陀罗、天魁、天钺等） -->
<g id="edge44" class="edge">
<title>年干&#45;&gt;干系诸星（擎羊、陀罗、天魁、天钺等）</title>
<path fill="none" stroke="#000000" d="M207.4983,-863.4456C241.3265,-827.9445 308.0387,-757.9599 364.764,-698.6139 381.8059,-680.7846 399.6969,-662.0829 417.4374,-643.5482"/>
<polygon fill="#000000" stroke="#000000" points="420.1054,-645.8226 424.4919,-636.1784 415.0487,-640.9821 420.1054,-645.8226"/>
</g>
<!-- 四化（化科、化权、化禄、化忌） -->
<g id="node40" class="node">
<title>四化（化科、化权、化禄、化忌）</title>
<ellipse fill="none" stroke="#000000" cx="559.1888" cy="-141.6139" rx="141.7278" ry="141.7278"/>
<text text-anchor="middle" x="559.1888" y="-137.4139" font-family="Times,serif" font-size="14.00" fill="#000000">四化（化科、化权、化禄、化忌）</text>
</g>
<!-- 年干&#45;&gt;四化（化科、化权、化禄、化忌） -->
<g id="edge45" class="edge">
<title>年干&#45;&gt;四化（化科、化权、化禄、化忌）</title>
<path fill="none" stroke="#000000" d="M188.2073,-855.0393C197.7837,-761.3398 236.2322,-479.7505 364.764,-292.6139 382.5585,-266.7058 406.1741,-243.2218 430.7978,-222.9073"/>
<polygon fill="#000000" stroke="#000000" points="433.2432,-225.4311 438.8218,-216.4239 428.8438,-219.9863 433.2432,-225.4311"/>
</g>
<!-- 截空 -->
<g id="node47" class="node">
<title>截空</title>
<ellipse fill="none" stroke="#000000" cx="559.1888" cy="-736.6139" rx="28.6802" ry="28.6802"/>
<text text-anchor="middle" x="559.1888" y="-732.4139" font-family="Times,serif" font-size="14.00" fill="#000000">截空</text>
</g>
<!-- 年干&#45;&gt;截空 -->
<g id="edge55" class="edge">
<title>年干&#45;&gt;截空</title>
<path fill="none" stroke="#000000" d="M210.2633,-866.9323C243.4959,-841.6155 305.1747,-798.1134 364.764,-774.6139 416.4558,-754.2287 480.3396,-744.4388 520.4382,-739.9899"/>
<polygon fill="#000000" stroke="#000000" points="521.0137,-743.4488 530.5925,-738.9214 520.2811,-736.4872 521.0137,-743.4488"/>
</g>
<!-- 旬空 -->
<g id="node48" class="node">
<title>旬空</title>
<ellipse fill="none" stroke="#000000" cx="559.1888" cy="-1131.6139" rx="27.536" ry="27.536"/>
<text text-anchor="middle" x="559.1888" y="-1127.4139" font-family="Times,serif" font-size="14.00" fill="#000000">旬空</text>
</g>
<!-- 年干&#45;&gt;旬空 -->
<g id="edge56" class="edge">
<title>年干&#45;&gt;旬空</title>
<path fill="none" stroke="#000000" d="M200.8755,-914.4491C227.7704,-960.0771 287.7565,-1050.1474 364.764,-1094.6139 413.7615,-1122.9065 480.1674,-1130.1104 521.3143,-1131.6494"/>
<polygon fill="#000000" stroke="#000000" points="521.3635,-1135.152 531.4574,-1131.9327 521.559,-1128.1548 521.3635,-1135.152"/>
</g>
<!-- 火星、铃星 -->
<g id="node30" class="node">
<title>火星、铃星</title>
<ellipse fill="none" stroke="#000000" cx="559.1888" cy="-2478.6139" rx="54.443" ry="54.443"/>
<text text-anchor="middle" x="559.1888" y="-2474.4139" font-family="Times,serif" font-size="14.00" fill="#000000">火星、铃星</text>
</g>
<!-- 年支&#45;&gt;火星、铃星 -->
<g id="edge30" class="edge">
<title>年支&#45;&gt;火星、铃星</title>
<path fill="none" stroke="#000000" d="M197.4371,-1638.5712C220.1433,-1692.6889 269.2455,-1816.0063 293.3748,-1924.6139 309.7571,-1998.3519 301.1739,-2018.7699 311.3748,-2093.6139 313.8162,-2111.5265 352.9963,-2400.8898 364.764,-2414.6139 396.8858,-2452.0759 451.3685,-2467.7275 494.5009,-2474.2075"/>
<polygon fill="#000000" stroke="#000000" points="494.2559,-2477.7066 504.6383,-2475.5957 495.2056,-2470.7713 494.2559,-2477.7066"/>
</g>
<!-- 支系诸星（天马、红鸾、天喜等） -->
<g id="node42" class="node">
<title>支系诸星（天马、红鸾、天喜等）</title>
<ellipse fill="none" stroke="#000000" cx="559.1888" cy="-1713.6139" rx="161.704" ry="161.704"/>
<text text-anchor="middle" x="559.1888" y="-1709.4139" font-family="Times,serif" font-size="14.00" fill="#000000">支系诸星（天马、红鸾、天喜等）</text>
</g>
<!-- 年支&#45;&gt;支系诸星（天马、红鸾、天喜等） -->
<g id="edge47" class="edge">
<title>年支&#45;&gt;支系诸星（天马、红鸾、天喜等）</title>
<path fill="none" stroke="#000000" d="M214.7545,-1618.6961C253.6285,-1629.4088 325.2451,-1649.1446 393.1458,-1667.8564"/>
<polygon fill="#000000" stroke="#000000" points="392.5622,-1671.326 403.1327,-1670.6086 394.4219,-1664.5775 392.5622,-1671.326"/>
</g>
<!-- 天才 -->
<g id="node43" class="node">
<title>天才</title>
<ellipse fill="none" stroke="#000000" cx="846.1657" cy="-2276.6139" rx="24.085" ry="24.085"/>
<text text-anchor="middle" x="846.1657" y="-2272.4139" font-family="Times,serif" font-size="14.00" fill="#000000">天才</text>
</g>
<!-- 年支&#45;&gt;天才 -->
<g id="edge48" class="edge">
<title>年支&#45;&gt;天才</title>
<path fill="none" stroke="#000000" d="M193.6262,-1640.0561C218.6819,-1727.8013 296.6703,-1984.544 364.764,-2034.6139 504.6605,-2137.481 612.4033,-1971.5577 753.6135,-2072.6139 809.9202,-2112.9094 832.6728,-2195.8226 841.309,-2242.5876"/>
<polygon fill="#000000" stroke="#000000" points="837.8782,-2243.2884 843.0346,-2252.5437 844.7753,-2242.0929 837.8782,-2243.2884"/>
</g>
<!-- 天寿 -->
<g id="node44" class="node">
<title>天寿</title>
<ellipse fill="none" stroke="#000000" cx="559.1888" cy="-2110.6139" rx="28.7386" ry="28.7386"/>
<text text-anchor="middle" x="559.1888" y="-2106.4139" font-family="Times,serif" font-size="14.00" fill="#000000">天寿</text>
</g>
<!-- 年支&#45;&gt;天寿 -->
<g id="edge50" class="edge">
<title>年支&#45;&gt;天寿</title>
<path fill="none" stroke="#000000" d="M197.2488,-1638.614C219.6332,-1692.8048 268.2091,-1816.2418 293.3748,-1924.6139 300.6195,-1955.8123 289.2609,-2044.4449 311.3748,-2067.6139 365.4728,-2124.293 465.4823,-2122.6425 520.465,-2116.5853"/>
<polygon fill="#000000" stroke="#000000" points="521.0014,-2120.0461 530.5103,-2115.3737 520.1631,-2113.0964 521.0014,-2120.0461"/>
</g>
<!-- 年支&#45;&gt;旬空 -->
<g id="edge57" class="edge">
<title>年支&#45;&gt;旬空</title>
<path fill="none" stroke="#000000" d="M189.9244,-1580.3152C203.8649,-1490.6105 249.1756,-1229.1693 311.3748,-1173.6139 369.8032,-1121.4264 468.1588,-1121.7803 521.7044,-1126.6481"/>
<polygon fill="#000000" stroke="#000000" points="521.4896,-1130.1442 531.7909,-1127.6677 522.1936,-1123.1797 521.4896,-1130.1442"/>
</g>
<!-- 身主 -->
<g id="node51" class="node">
<title>身主</title>
<ellipse fill="none" stroke="#000000" cx="559.1888" cy="-1497.6139" rx="36.5173" ry="36.5173"/>
<text text-anchor="middle" x="559.1888" y="-1493.4139" font-family="Times,serif" font-size="14.00" fill="#000000">身主</text>
</g>
<!-- 年支&#45;&gt;身主 -->
<g id="edge60" class="edge">
<title>年支&#45;&gt;身主</title>
<path fill="none" stroke="#000000" d="M213.5912,-1598.5762C248.5677,-1583.9452 310.2828,-1559.165 364.764,-1542.6139 414.7774,-1527.42 473.367,-1514.5057 513.0546,-1506.4611"/>
<polygon fill="#000000" stroke="#000000" points="513.8544,-1509.8704 522.971,-1504.4726 512.4781,-1503.0071 513.8544,-1509.8704"/>
</g>
<!-- 流年将前诸星 -->
<g id="node52" class="node">
<title>流年将前诸星</title>
<ellipse fill="none" stroke="#000000" cx="559.1888" cy="-1379.6139" rx="63.7103" ry="63.7103"/>
<text text-anchor="middle" x="559.1888" y="-1375.4139" font-family="Times,serif" font-size="14.00" fill="#000000">流年将前诸星</text>
</g>
<!-- 年支&#45;&gt;流年将前诸星 -->
<g id="edge61" class="edge">
<title>年支&#45;&gt;流年将前诸星</title>
<path fill="none" stroke="#000000" d="M205.693,-1587.9195C236.9169,-1554.1365 299.9886,-1490.4431 364.764,-1451.6139 402.8813,-1428.7646 449.4556,-1411.2077 487.4631,-1399.1532"/>
<polygon fill="#000000" stroke="#000000" points="488.9246,-1402.3642 497.4349,-1396.0535 486.8467,-1395.6797 488.9246,-1402.3642"/>
</g>
<!-- 流年岁前诸星 -->
<g id="node53" class="node">
<title>流年岁前诸星</title>
<ellipse fill="none" stroke="#000000" cx="559.1888" cy="-1959.6139" rx="66.0386" ry="66.0386"/>
<text text-anchor="middle" x="559.1888" y="-1955.4139" font-family="Times,serif" font-size="14.00" fill="#000000">流年岁前诸星</text>
</g>
<!-- 年支&#45;&gt;流年岁前诸星 -->
<g id="edge62" class="edge">
<title>年支&#45;&gt;流年岁前诸星</title>
<path fill="none" stroke="#000000" d="M196.7933,-1638.8443C220.223,-1693.6807 278.9817,-1815.2865 364.764,-1884.6139 399.5234,-1912.7057 446.0085,-1931.1501 484.8092,-1942.7165"/>
<polygon fill="#000000" stroke="#000000" points="483.9182,-1946.1021 494.4965,-1945.5106 485.8581,-1939.3763 483.9182,-1946.1021"/>
</g>
<!-- 小限 -->
<g id="node56" class="node">
<title>小限</title>
<ellipse fill="none" stroke="#000000" cx="846.1657" cy="-1162.6139" rx="30.1583" ry="30.1583"/>
<text text-anchor="middle" x="846.1657" y="-1158.4139" font-family="Times,serif" font-size="14.00" fill="#000000">小限</text>
</g>
<!-- 年支&#45;&gt;小限 -->
<g id="edge69" class="edge">
<title>年支&#45;&gt;小限</title>
<path fill="none" stroke="#000000" d="M188.6477,-1580.3809C198.6401,-1503.2001 236.6079,-1298.5095 364.764,-1206.6139 382.6033,-1193.822 692.911,-1172.5448 805.6512,-1165.2002"/>
<polygon fill="#000000" stroke="#000000" points="806.1758,-1168.6736 815.9283,-1164.5337 805.7227,-1161.6883 806.1758,-1168.6736"/>
</g>
<!-- 月 -->
<g id="node6" class="node">
<title>月</title>
<ellipse fill="none" stroke="#000000" cx="20.2386" cy="-2332.6139" rx="18.0611" ry="18.0611"/>
<text text-anchor="middle" x="20.2386" y="-2328.4139" font-family="Times,serif" font-size="14.00" fill="#000000">月</text>
</g>
<!-- 命宫 -->
<g id="node7" class="node">
<title>命宫</title>
<ellipse fill="none" stroke="#000000" cx="185.426" cy="-2289.6139" rx="38.2663" ry="38.2663"/>
<text text-anchor="middle" x="185.426" y="-2285.4139" font-family="Times,serif" font-size="14.00" fill="#000000">命宫</text>
</g>
<!-- 月&#45;&gt;命宫 -->
<g id="edge4" class="edge">
<title>月&#45;&gt;命宫</title>
<path fill="none" stroke="#000000" d="M38.231,-2327.9302C62.1016,-2321.7165 105.1122,-2310.5204 138.4988,-2301.8295"/>
<polygon fill="#000000" stroke="#000000" points="139.7236,-2305.1274 148.5194,-2299.221 137.9602,-2298.3531 139.7236,-2305.1274"/>
</g>
<!-- 身宫 -->
<g id="node9" class="node">
<title>身宫</title>
<ellipse fill="none" stroke="#000000" cx="185.426" cy="-2194.6139" rx="38.8249" ry="38.8249"/>
<text text-anchor="middle" x="185.426" y="-2190.4139" font-family="Times,serif" font-size="14.00" fill="#000000">身宫</text>
</g>
<!-- 月&#45;&gt;身宫 -->
<g id="edge6" class="edge">
<title>月&#45;&gt;身宫</title>
<path fill="none" stroke="#000000" d="M27.3644,-2315.5745C36.4207,-2295.7232 53.7728,-2263.0449 77.4772,-2242.6139 95.1138,-2227.4126 118.336,-2216.2544 138.7219,-2208.5426"/>
<polygon fill="#000000" stroke="#000000" points="139.943,-2211.8229 148.1607,-2205.1356 137.5663,-2205.2387 139.943,-2211.8229"/>
</g>
<!-- 左辅 -->
<g id="node31" class="node">
<title>左辅</title>
<ellipse fill="none" stroke="#000000" cx="185.426" cy="-2481.6139" rx="32.2726" ry="32.2726"/>
<text text-anchor="middle" x="185.426" y="-2477.4139" font-family="Times,serif" font-size="14.00" fill="#000000">左辅</text>
</g>
<!-- 月&#45;&gt;左辅 -->
<g id="edge32" class="edge">
<title>月&#45;&gt;左辅</title>
<path fill="none" stroke="#000000" d="M25.3857,-2350.2246C33.0822,-2373.6666 49.7319,-2415.0169 77.4772,-2439.6139 96.1376,-2456.1568 122.0497,-2466.528 143.8093,-2472.8249"/>
<polygon fill="#000000" stroke="#000000" points="142.9067,-2476.2065 153.4737,-2475.4389 144.7345,-2469.4493 142.9067,-2476.2065"/>
</g>
<!-- 右弼 -->
<g id="node32" class="node">
<title>右弼</title>
<ellipse fill="none" stroke="#000000" cx="185.426" cy="-2388.6139" rx="42.3433" ry="42.3433"/>
<text text-anchor="middle" x="185.426" y="-2384.4139" font-family="Times,serif" font-size="14.00" fill="#000000">右弼</text>
</g>
<!-- 月&#45;&gt;右弼 -->
<g id="edge33" class="edge">
<title>月&#45;&gt;右弼</title>
<path fill="none" stroke="#000000" d="M37.6043,-2338.501C60.6744,-2346.3219 102.3854,-2360.4624 135.6313,-2371.733"/>
<polygon fill="#000000" stroke="#000000" points="134.6088,-2375.082 145.2031,-2374.9779 136.8563,-2368.4525 134.6088,-2375.082"/>
</g>
<!-- 月系诸星（天刑等） -->
<g id="node33" class="node">
<title>月系诸星（天刑等）</title>
<ellipse fill="none" stroke="#000000" cx="185.426" cy="-2035.6139" rx="102.1915" ry="102.1915"/>
<text text-anchor="middle" x="185.426" y="-2031.4139" font-family="Times,serif" font-size="14.00" fill="#000000">月系诸星（天刑等）</text>
</g>
<!-- 月&#45;&gt;月系诸星（天刑等） -->
<g id="edge34" class="edge">
<title>月&#45;&gt;月系诸星（天刑等）</title>
<path fill="none" stroke="#000000" d="M22.9361,-2314.2864C28.6625,-2279.5411 44.318,-2202.5642 77.4772,-2146.6139 84.6596,-2134.4949 93.4251,-2122.6861 102.8246,-2111.5683"/>
<polygon fill="#000000" stroke="#000000" points="105.4979,-2113.8279 109.4216,-2103.9864 100.217,-2109.233 105.4979,-2113.8279"/>
</g>
<!-- 子年斗君 -->
<g id="node54" class="node">
<title>子年斗君</title>
<ellipse fill="none" stroke="#000000" cx="185.426" cy="-2574.6139" rx="42.8615" ry="42.8615"/>
<text text-anchor="middle" x="185.426" y="-2570.4139" font-family="Times,serif" font-size="14.00" fill="#000000">子年斗君</text>
</g>
<!-- 月&#45;&gt;子年斗君 -->
<g id="edge63" class="edge">
<title>月&#45;&gt;子年斗君</title>
<path fill="none" stroke="#000000" d="M23.7239,-2350.5659C32.1899,-2392.6473 54.8134,-2496.0989 77.4772,-2522.6139 92.3542,-2540.0188 114.3938,-2552.0698 134.6867,-2560.1533"/>
<polygon fill="#000000" stroke="#000000" points="133.5689,-2563.472 144.1613,-2563.7009 136.0235,-2556.9165 133.5689,-2563.472"/>
</g>
<!-- 十二宫 -->
<g id="node8" class="node">
<title>十二宫</title>
<ellipse fill="none" stroke="#000000" cx="559.1888" cy="-2590.6139" rx="40.0108" ry="40.0108"/>
<text text-anchor="middle" x="559.1888" y="-2586.4139" font-family="Times,serif" font-size="14.00" fill="#000000">十二宫</text>
</g>
<!-- 命宫&#45;&gt;十二宫 -->
<g id="edge5" class="edge">
<title>命宫&#45;&gt;十二宫</title>
<path fill="none" stroke="#000000" d="M222.6829,-2298.709C245.5715,-2305.9488 274.0995,-2318.1666 293.3748,-2337.6139 335.3268,-2379.9402 328.352,-2403.935 346.764,-2460.6139 358.1577,-2495.6878 339.0576,-2515.1718 364.764,-2541.6139 402.0537,-2579.9708 464.6381,-2589.9338 508.7096,-2591.7705"/>
<polygon fill="#000000" stroke="#000000" points="508.8325,-2595.2754 518.9295,-2592.066 509.0349,-2588.2783 508.8325,-2595.2754"/>
</g>
<!-- 命宫&#45;&gt;五行局 -->
<g id="edge10" class="edge">
<title>命宫&#45;&gt;五行局</title>
<path fill="none" stroke="#000000" d="M223.1972,-2283.3821C247.3716,-2277.2912 277.1463,-2265.4354 293.3748,-2242.6139 323.5974,-2200.113 331.2631,-1346.5816 364.764,-1306.6139 399.2434,-1265.4786 462.6003,-1255.7407 507.6125,-1254.5109"/>
<polygon fill="#000000" stroke="#000000" points="507.8253,-1258.0083 517.7749,-1254.3675 507.7265,-1251.009 507.8253,-1258.0083"/>
</g>
<!-- 天伤、天使 -->
<g id="node49" class="node">
<title>天伤、天使</title>
<ellipse fill="none" stroke="#000000" cx="559.1888" cy="-2345.6139" rx="60.1935" ry="60.1935"/>
<text text-anchor="middle" x="559.1888" y="-2341.4139" font-family="Times,serif" font-size="14.00" fill="#000000">天伤、天使</text>
</g>
<!-- 命宫&#45;&gt;天伤、天使 -->
<g id="edge58" class="edge">
<title>命宫&#45;&gt;天伤、天使</title>
<path fill="none" stroke="#000000" d="M223.3212,-2295.2916C285.575,-2304.6189 410.4208,-2323.3243 489.1227,-2335.116"/>
<polygon fill="#000000" stroke="#000000" points="489.0262,-2338.6405 499.4344,-2336.661 490.0634,-2331.7178 489.0262,-2338.6405"/>
</g>
<!-- 命主 -->
<g id="node50" class="node">
<title>命主</title>
<ellipse fill="none" stroke="#000000" cx="559.1888" cy="-2231.6139" rx="35.9589" ry="35.9589"/>
<text text-anchor="middle" x="559.1888" y="-2227.4139" font-family="Times,serif" font-size="14.00" fill="#000000">命主</text>
</g>
<!-- 命宫&#45;&gt;命主 -->
<g id="edge59" class="edge">
<title>命宫&#45;&gt;命主</title>
<path fill="none" stroke="#000000" d="M223.3212,-2283.7333C292.4494,-2273.0061 438.7564,-2250.3024 513.3603,-2238.7255"/>
<polygon fill="#000000" stroke="#000000" points="514.0508,-2242.1603 523.3958,-2237.1682 512.9774,-2235.2431 514.0508,-2242.1603"/>
</g>
<!-- 大限 -->
<g id="node55" class="node">
<title>大限</title>
<ellipse fill="none" stroke="#000000" cx="846.1657" cy="-1250.6139" rx="31.8827" ry="31.8827"/>
<text text-anchor="middle" x="846.1657" y="-1246.4139" font-family="Times,serif" font-size="14.00" fill="#000000">大限</text>
</g>
<!-- 命宫&#45;&gt;大限 -->
<g id="edge65" class="edge">
<title>命宫&#45;&gt;大限</title>
<path fill="none" stroke="#000000" d="M221.5511,-2276.5586C243.0742,-2268.1354 270.5548,-2256.228 293.3748,-2242.6139 328.0057,-2221.9534 327.3344,-2201.62 364.764,-2186.6139 445.3513,-2154.3051 692.0586,-2209.8442 753.6135,-2148.6139 815.0728,-2087.4787 839.4288,-1461.3033 844.9095,-1292.3982"/>
<polygon fill="#000000" stroke="#000000" points="848.4077,-1292.5065 845.2291,-1282.3997 841.4113,-1292.2828 848.4077,-1292.5065"/>
</g>
<!-- 十二宫&#45;&gt;天才 -->
<g id="edge49" class="edge">
<title>十二宫&#45;&gt;天才</title>
<path fill="none" stroke="#000000" d="M599.3584,-2591.1354C642.7142,-2589.5282 711.2311,-2580.3778 753.6135,-2541.6139 820.6717,-2480.2809 839.1446,-2367.6863 844.2324,-2311.0575"/>
<polygon fill="#000000" stroke="#000000" points="847.7416,-2311.0841 845.0588,-2300.8346 840.7644,-2310.52 847.7416,-2311.0841"/>
</g>
<!-- 身宫&#45;&gt;天寿 -->
<g id="edge51" class="edge">
<title>身宫&#45;&gt;天寿</title>
<path fill="none" stroke="#000000" d="M221.9487,-2181.1914C246.8776,-2172.4106 280.7985,-2161.2021 311.3748,-2153.6139 384.2217,-2135.5352 470.9656,-2122.3483 520.1033,-2115.6345"/>
<polygon fill="#000000" stroke="#000000" points="520.849,-2119.0658 530.2921,-2114.2618 519.9142,-2112.1285 520.849,-2119.0658"/>
</g>
<!-- 时 -->
<g id="node10" class="node">
<title>时</title>
<ellipse fill="none" stroke="#000000" cx="20.2386" cy="-2645.6139" rx="20.4801" ry="20.4801"/>
<text text-anchor="middle" x="20.2386" y="-2641.4139" font-family="Times,serif" font-size="14.00" fill="#000000">时</text>
</g>
<!-- 时&#45;&gt;命宫 -->
<g id="edge7" class="edge">
<title>时&#45;&gt;命宫</title>
<path fill="none" stroke="#000000" d="M21.5962,-2625.0224C26.0218,-2563.5391 41.8483,-2382.7643 77.4772,-2337.6139 92.4619,-2318.6247 116.5507,-2306.9445 138.175,-2299.8691"/>
<polygon fill="#000000" stroke="#000000" points="139.3349,-2303.1749 147.8955,-2296.9325 137.3106,-2296.474 139.3349,-2303.1749"/>
</g>
<!-- 时&#45;&gt;身宫 -->
<g id="edge8" class="edge">
<title>时&#45;&gt;身宫</title>
<path fill="none" stroke="#000000" d="M20.5824,-2625.1661C22.1941,-2551.9328 31.044,-2303.8511 77.4772,-2242.6139 92.0387,-2223.4098 115.9755,-2211.7224 137.6132,-2204.6973"/>
<polygon fill="#000000" stroke="#000000" points="138.7719,-2208.004 147.3511,-2201.7873 136.7677,-2201.2971 138.7719,-2208.004"/>
</g>
<!-- 文昌 -->
<g id="node27" class="node">
<title>文昌</title>
<ellipse fill="none" stroke="#000000" cx="185.426" cy="-3066.6139" rx="25.5439" ry="25.5439"/>
<text text-anchor="middle" x="185.426" y="-3062.4139" font-family="Times,serif" font-size="14.00" fill="#000000">文昌</text>
</g>
<!-- 时&#45;&gt;文昌 -->
<g id="edge27" class="edge">
<title>时&#45;&gt;文昌</title>
<path fill="none" stroke="#000000" d="M20.4893,-2665.9189C21.7784,-2737.4641 29.6523,-2976.5495 77.4772,-3032.6139 95.25,-3053.4486 125.6675,-3061.675 149.6932,-3064.8462"/>
<polygon fill="#000000" stroke="#000000" points="149.5597,-3068.352 159.8778,-3065.9464 150.3116,-3061.3925 149.5597,-3068.352"/>
</g>
<!-- 文曲 -->
<g id="node28" class="node">
<title>文曲</title>
<ellipse fill="none" stroke="#000000" cx="185.426" cy="-2701.6139" rx="27.8725" ry="27.8725"/>
<text text-anchor="middle" x="185.426" y="-2697.4139" font-family="Times,serif" font-size="14.00" fill="#000000">文曲</text>
</g>
<!-- 时&#45;&gt;文曲 -->
<g id="edge28" class="edge">
<title>时&#45;&gt;文曲</title>
<path fill="none" stroke="#000000" d="M39.2575,-2652.7108C45.3792,-2654.9593 52.2017,-2657.4276 58.4772,-2659.6139 88.8619,-2670.1994 123.5574,-2681.634 148.9894,-2689.8954"/>
<polygon fill="#000000" stroke="#000000" points="148.0037,-2693.2551 158.5957,-2693.0082 150.1616,-2686.596 148.0037,-2693.2551"/>
</g>
<!-- 时系诸星（地劫等） -->
<g id="node29" class="node">
<title>时系诸星（地劫等）</title>
<ellipse fill="none" stroke="#000000" cx="185.426" cy="-2915.6139" rx="107.8976" ry="107.8976"/>
<text text-anchor="middle" x="185.426" y="-2911.4139" font-family="Times,serif" font-size="14.00" fill="#000000">时系诸星（地劫等）</text>
</g>
<!-- 时&#45;&gt;时系诸星（地劫等） -->
<g id="edge29" class="edge">
<title>时&#45;&gt;时系诸星（地劫等）</title>
<path fill="none" stroke="#000000" d="M25.0413,-2665.5559C32.9094,-2695.8677 50.4284,-2754.6528 77.4772,-2798.6139 84.5281,-2810.0733 92.8012,-2821.4055 101.5766,-2832.2445"/>
<polygon fill="#000000" stroke="#000000" points="98.9674,-2834.5812 108.045,-2840.0445 104.3557,-2830.1128 98.9674,-2834.5812"/>
</g>
<!-- 时&#45;&gt;火星、铃星 -->
<g id="edge31" class="edge">
<title>时&#45;&gt;火星、铃星</title>
<path fill="none" stroke="#000000" d="M40.1484,-2649.2484C87.2145,-2656.8191 207.8036,-2670.1706 293.3748,-2626.6139 337.341,-2604.2345 323.8468,-2569.1755 364.764,-2541.6139 404.1016,-2515.1162 455.3677,-2499.1136 495.38,-2489.8705"/>
<polygon fill="#000000" stroke="#000000" points="496.2951,-2493.2526 505.2961,-2487.6639 494.7746,-2486.4197 496.2951,-2493.2526"/>
</g>
<!-- 时&#45;&gt;子年斗君 -->
<g id="edge64" class="edge">
<title>时&#45;&gt;子年斗君</title>
<path fill="none" stroke="#000000" d="M38.8666,-2637.6073C62.4429,-2627.4738 103.936,-2609.6395 136.7685,-2595.5276"/>
<polygon fill="#000000" stroke="#000000" points="138.4074,-2598.6328 146.2126,-2591.4683 135.6432,-2592.2017 138.4074,-2598.6328"/>
</g>
<!-- 五行局&#45;&gt;紫微 -->
<g id="edge12" class="edge">
<title>五行局&#45;&gt;紫微</title>
<path fill="none" stroke="#000000" d="M600.5181,-1254.1022C645.9207,-1253.8616 717.2163,-1261.4179 753.6135,-1306.6139 788.5873,-1350.0422 784.1585,-2254.2286 790.6135,-2309.6139 800.5042,-2394.477 822.14,-2491.9963 835.3014,-2546.9617"/>
<polygon fill="#000000" stroke="#000000" points="831.9073,-2547.8172 837.6555,-2556.7171 838.7119,-2546.1751 831.9073,-2547.8172"/>
</g>
<!-- 长生十二星 -->
<g id="node45" class="node">
<title>长生十二星</title>
<ellipse fill="none" stroke="#000000" cx="846.1657" cy="-1055.6139" rx="55.6043" ry="55.6043"/>
<text text-anchor="middle" x="846.1657" y="-1051.4139" font-family="Times,serif" font-size="14.00" fill="#000000">长生十二星</text>
</g>
<!-- 五行局&#45;&gt;长生十二星 -->
<g id="edge52" class="edge">
<title>五行局&#45;&gt;长生十二星</title>
<path fill="none" stroke="#000000" d="M598.9391,-1244.6454C640.3908,-1230.8548 705.8583,-1205.2798 753.6135,-1168.6139 754.0405,-1168.286 780.081,-1136.4805 804.4285,-1106.7"/>
<polygon fill="#000000" stroke="#000000" points="807.2764,-1108.7463 810.8956,-1098.7887 801.8568,-1104.3159 807.2764,-1108.7463"/>
</g>
<!-- 五行局&#45;&gt;大限 -->
<g id="edge66" class="edge">
<title>五行局&#45;&gt;大限</title>
<path fill="none" stroke="#000000" d="M600.6112,-1255.7478C654.857,-1254.6137 749.4543,-1252.6359 804.0442,-1251.4945"/>
<polygon fill="#000000" stroke="#000000" points="804.1543,-1254.9931 814.0789,-1251.2847 804.0079,-1247.9946 804.1543,-1254.9931"/>
</g>
<!-- 阴阳&#45;&gt;长生十二星 -->
<g id="edge53" class="edge">
<title>阴阳&#45;&gt;长生十二星</title>
<path fill="none" stroke="#000000" d="M595.8804,-977.3971C635.3478,-985.1311 699.702,-999.0132 753.6135,-1016.6139 764.2542,-1020.0877 775.3781,-1024.2718 786.0739,-1028.5914"/>
<polygon fill="#000000" stroke="#000000" points="784.7607,-1031.8357 795.34,-1032.4078 787.4265,-1025.3632 784.7607,-1031.8357"/>
</g>
<!-- 阴阳&#45;&gt;大限 -->
<g id="edge67" class="edge">
<title>阴阳&#45;&gt;大限</title>
<path fill="none" stroke="#000000" d="M596.4037,-968.3389C640.3555,-967.8296 712.6524,-974.1965 753.6135,-1016.6139 811.8604,-1076.9315 748.7543,-1128.9591 790.6135,-1201.6139 795.91,-1210.8069 803.5621,-1219.1636 811.5015,-1226.2683"/>
<polygon fill="#000000" stroke="#000000" points="809.5481,-1229.198 819.46,-1232.9403 814.0453,-1223.8336 809.5481,-1229.198"/>
</g>
<!-- 日 -->
<g id="node13" class="node">
<title>日</title>
<ellipse fill="none" stroke="#000000" cx="185.426" cy="-2768.6139" rx="20.8887" ry="20.8887"/>
<text text-anchor="middle" x="185.426" y="-2764.4139" font-family="Times,serif" font-size="14.00" fill="#000000">日</text>
</g>
<!-- 日&#45;&gt;紫微 -->
<g id="edge13" class="edge">
<title>日&#45;&gt;紫微</title>
<path fill="none" stroke="#000000" d="M206.2728,-2769.6447C229.7509,-2771.7992 267.9387,-2778.4098 293.3748,-2798.6139 306.4567,-2809.0049 300.049,-2819.3323 311.3748,-2831.6139 330.6094,-2852.4717 337.577,-2858.4968 364.764,-2866.6139 530.3628,-2916.0556 613.3222,-2967.5385 753.6135,-2866.6139 791.7877,-2839.1516 823.3698,-2705.7649 837.771,-2634.9683"/>
<polygon fill="#000000" stroke="#000000" points="841.236,-2635.49 839.7698,-2624.9972 834.3725,-2634.1141 841.236,-2635.49"/>
</g>
<!-- 三台 -->
<g id="node34" class="node">
<title>三台</title>
<ellipse fill="none" stroke="#000000" cx="559.1888" cy="-2757.6139" rx="26.1462" ry="26.1462"/>
<text text-anchor="middle" x="559.1888" y="-2753.4139" font-family="Times,serif" font-size="14.00" fill="#000000">三台</text>
</g>
<!-- 日&#45;&gt;三台 -->
<g id="edge36" class="edge">
<title>日&#45;&gt;三台</title>
<path fill="none" stroke="#000000" d="M206.322,-2767.9989C267.256,-2766.2056 445.3157,-2760.9652 522.6419,-2758.6894"/>
<polygon fill="#000000" stroke="#000000" points="522.9691,-2762.1814 532.8617,-2758.3887 522.7631,-2755.1845 522.9691,-2762.1814"/>
</g>
<!-- 八座 -->
<g id="node35" class="node">
<title>八座</title>
<ellipse fill="none" stroke="#000000" cx="559.1888" cy="-2680.6139" rx="32.4473" ry="32.4473"/>
<text text-anchor="middle" x="559.1888" y="-2676.4139" font-family="Times,serif" font-size="14.00" fill="#000000">八座</text>
</g>
<!-- 日&#45;&gt;八座 -->
<g id="edge38" class="edge">
<title>日&#45;&gt;八座</title>
<path fill="none" stroke="#000000" d="M205.5351,-2763.1875C238.6398,-2754.3148 306.7351,-2736.3185 364.764,-2722.6139 417.2114,-2710.2274 477.964,-2697.3351 517.407,-2689.1565"/>
<polygon fill="#000000" stroke="#000000" points="518.365,-2692.5325 527.4494,-2687.0805 516.9479,-2685.6774 518.365,-2692.5325"/>
</g>
<!-- 恩光 -->
<g id="node36" class="node">
<title>恩光</title>
<ellipse fill="none" stroke="#000000" cx="559.1888" cy="-2996.6139" rx="24.6909" ry="24.6909"/>
<text text-anchor="middle" x="559.1888" y="-2992.4139" font-family="Times,serif" font-size="14.00" fill="#000000">恩光</text>
</g>
<!-- 日&#45;&gt;恩光 -->
<g id="edge40" class="edge">
<title>日&#45;&gt;恩光</title>
<path fill="none" stroke="#000000" d="M206.2555,-2768.2139C230.823,-2768.9486 271.1256,-2774.1512 293.3748,-2798.6139 324.0539,-2832.3452 282.4555,-2864.3621 311.3748,-2899.6139 365.2197,-2965.2491 469.4411,-2986.6362 523.9804,-2993.4802"/>
<polygon fill="#000000" stroke="#000000" points="523.8598,-2996.9895 534.1962,-2994.6639 524.6655,-2990.036 523.8598,-2996.9895"/>
</g>
<!-- 天贵 -->
<g id="node37" class="node">
<title>天贵</title>
<ellipse fill="none" stroke="#000000" cx="559.1888" cy="-2829.6139" rx="27.5554" ry="27.5554"/>
<text text-anchor="middle" x="559.1888" y="-2825.4139" font-family="Times,serif" font-size="14.00" fill="#000000">天贵</text>
</g>
<!-- 日&#45;&gt;天贵 -->
<g id="edge42" class="edge">
<title>日&#45;&gt;天贵</title>
<path fill="none" stroke="#000000" d="M206.1887,-2771.8985C228.5896,-2775.9986 264.8768,-2784.2789 293.3748,-2798.6139 302.4288,-2803.1681 301.9067,-2808.9984 311.3748,-2812.6139 381.8968,-2839.5431 471.8433,-2837.5933 521.6766,-2833.6675"/>
<polygon fill="#000000" stroke="#000000" points="522.0159,-2837.1513 531.6802,-2832.8094 521.4177,-2830.1769 522.0159,-2837.1513"/>
</g>
<!-- 太阴 -->
<g id="node20" class="node">
<title>太阴</title>
<ellipse fill="none" stroke="#000000" cx="1080.9666" cy="-3045.6139" rx="31.2988" ry="31.2988"/>
<text text-anchor="middle" x="1080.9666" y="-3041.4139" font-family="Times,serif" font-size="14.00" fill="#000000">太阴</text>
</g>
<!-- 天府&#45;&gt;太阴 -->
<g id="edge20" class="edge">
<title>天府&#45;&gt;太阴</title>
<path fill="none" stroke="#000000" d="M976.7303,-2813.3395C984.8874,-2855.7686 1004.9801,-2942.0444 1042.8443,-3005.6139 1045.1716,-3009.521 1047.9442,-3013.3528 1050.9174,-3017.0032"/>
<polygon fill="#000000" stroke="#000000" points="1048.4205,-3019.4639 1057.6517,-3024.6633 1053.6777,-3014.842 1048.4205,-3019.4639"/>
</g>
<!-- 贪狼 -->
<g id="node21" class="node">
<title>贪狼</title>
<ellipse fill="none" stroke="#000000" cx="1080.9666" cy="-2958.6139" rx="38.245" ry="38.245"/>
<text text-anchor="middle" x="1080.9666" y="-2954.4139" font-family="Times,serif" font-size="14.00" fill="#000000">贪狼</text>
</g>
<!-- 天府&#45;&gt;贪狼 -->
<g id="edge21" class="edge">
<title>天府&#45;&gt;贪狼</title>
<path fill="none" stroke="#000000" d="M984.1914,-2811.1522C997.4133,-2836.6174 1019.927,-2878.0739 1042.8443,-2911.6139 1045.081,-2914.8872 1047.4865,-2918.2168 1049.9626,-2921.5148"/>
<polygon fill="#000000" stroke="#000000" points="1047.3236,-2923.8238 1056.2067,-2929.598 1052.8632,-2919.5445 1047.3236,-2923.8238"/>
</g>
<!-- 巨门 -->
<g id="node22" class="node">
<title>巨门</title>
<ellipse fill="none" stroke="#000000" cx="1080.9666" cy="-2866.6139" rx="35.7449" ry="35.7449"/>
<text text-anchor="middle" x="1080.9666" y="-2862.4139" font-family="Times,serif" font-size="14.00" fill="#000000">巨门</text>
</g>
<!-- 天府&#45;&gt;巨门 -->
<g id="edge22" class="edge">
<title>天府&#45;&gt;巨门</title>
<path fill="none" stroke="#000000" d="M993.4947,-2803.0334C1007.5933,-2813.2811 1026.5025,-2827.0256 1043.1326,-2839.1136"/>
<polygon fill="#000000" stroke="#000000" points="1041.437,-2842.208 1051.5838,-2845.2565 1045.5528,-2836.5457 1041.437,-2842.208"/>
</g>
<!-- 天相 -->
<g id="node23" class="node">
<title>天相</title>
<ellipse fill="none" stroke="#000000" cx="1080.9666" cy="-2787.6139" rx="24.6871" ry="24.6871"/>
<text text-anchor="middle" x="1080.9666" y="-2783.4139" font-family="Times,serif" font-size="14.00" fill="#000000">天相</text>
</g>
<!-- 天府&#45;&gt;天相 -->
<g id="edge23" class="edge">
<title>天府&#45;&gt;天相</title>
<path fill="none" stroke="#000000" d="M998.314,-2787.6139C1012.4989,-2787.6139 1030.2544,-2787.6139 1045.6692,-2787.6139"/>
<polygon fill="#000000" stroke="#000000" points="1045.8945,-2791.1139 1055.8944,-2787.6139 1045.8944,-2784.1139 1045.8945,-2791.1139"/>
</g>
<!-- 天梁 -->
<g id="node24" class="node">
<title>天梁</title>
<ellipse fill="none" stroke="#000000" cx="1080.9666" cy="-2718.6139" rx="26.4135" ry="26.4135"/>
<text text-anchor="middle" x="1080.9666" y="-2714.4139" font-family="Times,serif" font-size="14.00" fill="#000000">天梁</text>
</g>
<!-- 天府&#45;&gt;天梁 -->
<g id="edge24" class="edge">
<title>天府&#45;&gt;天梁</title>
<path fill="none" stroke="#000000" d="M994.2752,-2773.6507C1010.1214,-2763.5906 1031.7373,-2749.8676 1049.42,-2738.6415"/>
<polygon fill="#000000" stroke="#000000" points="1051.6905,-2741.3458 1058.257,-2733.0312 1047.9387,-2735.4362 1051.6905,-2741.3458"/>
</g>
<!-- 七杀 -->
<g id="node25" class="node">
<title>七杀</title>
<ellipse fill="none" stroke="#000000" cx="1080.9666" cy="-2647.6139" rx="26.1462" ry="26.1462"/>
<text text-anchor="middle" x="1080.9666" y="-2643.4139" font-family="Times,serif" font-size="14.00" fill="#000000">七杀</text>
</g>
<!-- 天府&#45;&gt;七杀 -->
<g id="edge25" class="edge">
<title>天府&#45;&gt;七杀</title>
<path fill="none" stroke="#000000" d="M991.4467,-2770.1576C996.4554,-2765.0914 1001.627,-2759.3667 1005.8443,-2753.6139 1026.6497,-2725.2333 1021.5442,-2711.625 1042.8443,-2683.6139 1046.0005,-2679.4632 1049.653,-2675.3676 1053.4215,-2671.5103"/>
<polygon fill="#000000" stroke="#000000" points="1055.9737,-2673.9106 1060.7117,-2664.4342 1051.0983,-2668.8876 1055.9737,-2673.9106"/>
</g>
<!-- 破军 -->
<g id="node26" class="node">
<title>破军</title>
<ellipse fill="none" stroke="#000000" cx="1080.9666" cy="-2577.6139" rx="25.5439" ry="25.5439"/>
<text text-anchor="middle" x="1080.9666" y="-2573.4139" font-family="Times,serif" font-size="14.00" fill="#000000">破军</text>
</g>
<!-- 天府&#45;&gt;破军 -->
<g id="edge26" class="edge">
<title>天府&#45;&gt;破军</title>
<path fill="none" stroke="#000000" d="M992.3553,-2770.7467C997.3675,-2765.6828 1002.3138,-2759.812 1005.8443,-2753.6139 1037.9115,-2697.3179 1009.4039,-2668.105 1042.8443,-2612.6139 1045.5572,-2608.112 1049.021,-2603.84 1052.7508,-2599.9278"/>
<polygon fill="#000000" stroke="#000000" points="1055.312,-2602.3215 1060.1236,-2592.8822 1050.4758,-2597.2606 1055.312,-2602.3215"/>
</g>
<!-- 文昌&#45;&gt;恩光 -->
<g id="edge39" class="edge">
<title>文昌&#45;&gt;恩光</title>
<path fill="none" stroke="#000000" d="M210.53,-3061.9123C275.5836,-3049.7287 449.7413,-3017.1117 524.4118,-3003.127"/>
<polygon fill="#000000" stroke="#000000" points="525.4973,-3006.4847 534.6821,-3001.2036 524.2086,-2999.6043 525.4973,-3006.4847"/>
</g>
<!-- 文曲&#45;&gt;天贵 -->
<g id="edge41" class="edge">
<title>文曲&#45;&gt;天贵</title>
<path fill="none" stroke="#000000" d="M212.5785,-2708.3361C235.0208,-2714.4905 267.3139,-2724.7501 293.3748,-2738.6139 328.4973,-2757.2982 328.4032,-2776.4709 364.764,-2792.6139 416.078,-2815.3956 481.0948,-2824.1689 521.417,-2827.5351"/>
<polygon fill="#000000" stroke="#000000" points="521.3701,-2831.0416 531.6078,-2828.3141 521.9037,-2824.062 521.3701,-2831.0416"/>
</g>
<!-- 左辅&#45;&gt;三台 -->
<g id="edge35" class="edge">
<title>左辅&#45;&gt;三台</title>
<path fill="none" stroke="#000000" d="M217.5119,-2486.0798C241.5241,-2491.0498 273.5187,-2501.3836 293.3748,-2522.6139 312.1016,-2542.6366 302.4853,-2555.6797 311.3748,-2581.6139 332.9678,-2644.609 313.6074,-2678.9799 364.764,-2721.6139 409.3737,-2758.7916 479.9236,-2762.555 522.6523,-2760.8304"/>
<polygon fill="#000000" stroke="#000000" points="523.0817,-2764.3127 532.8834,-2760.2907 522.7129,-2757.3224 523.0817,-2764.3127"/>
</g>
<!-- 右弼&#45;&gt;八座 -->
<g id="edge37" class="edge">
<title>右弼&#45;&gt;八座</title>
<path fill="none" stroke="#000000" d="M226.4343,-2400.0831C248.8168,-2408.189 275.5234,-2421.1388 293.3748,-2440.6139 338.6531,-2490.0105 324.9589,-2518.2522 346.764,-2581.6139 355.5469,-2607.1355 344.8114,-2621.4372 364.764,-2639.6139 406.1097,-2677.2795 473.0692,-2683.681 516.6147,-2683.3114"/>
<polygon fill="#000000" stroke="#000000" points="516.9567,-2686.8051 526.881,-2683.0957 516.8096,-2679.8067 516.9567,-2686.8051"/>
</g>
<!-- 博士十二星 -->
<g id="node41" class="node">
<title>博士十二星</title>
<ellipse fill="none" stroke="#000000" cx="846.1657" cy="-886.6139" rx="53.9021" ry="53.9021"/>
<text text-anchor="middle" x="846.1657" y="-882.4139" font-family="Times,serif" font-size="14.00" fill="#000000">博士十二星</text>
</g>
<!-- 禄存&#45;&gt;博士十二星 -->
<g id="edge46" class="edge">
<title>禄存&#45;&gt;博士十二星</title>
<path fill="none" stroke="#000000" d="M588.0191,-886.6139C633.0306,-886.6139 721.1183,-886.6139 781.776,-886.6139"/>
<polygon fill="#000000" stroke="#000000" points="782.0143,-890.1139 792.0143,-886.6139 782.0143,-883.1139 782.0143,-890.1139"/>
</g>
<!-- 性别 -->
<g id="node46" class="node">
<title>性别</title>
<ellipse fill="none" stroke="#000000" cx="559.1888" cy="-1055.6139" rx="30.2015" ry="30.2015"/>
<text text-anchor="middle" x="559.1888" y="-1051.4139" font-family="Times,serif" font-size="14.00" fill="#000000">性别</text>
</g>
<!-- 性别&#45;&gt;长生十二星 -->
<g id="edge54" class="edge">
<title>性别&#45;&gt;长生十二星</title>
<path fill="none" stroke="#000000" d="M589.6286,-1055.6139C634.7648,-1055.6139 720.5442,-1055.6139 780.4328,-1055.6139"/>
<polygon fill="#000000" stroke="#000000" points="780.5539,-1059.1139 790.5539,-1055.6139 780.5539,-1052.1139 780.5539,-1059.1139"/>
</g>
<!-- 性别&#45;&gt;大限 -->
<g id="edge68" class="edge">
<title>性别&#45;&gt;大限</title>
<path fill="none" stroke="#000000" d="M589.3803,-1052.4215C631.9699,-1049.7143 709.4153,-1051.672 753.6135,-1094.6139 779.1309,-1119.4058 757.6475,-1139.8919 771.6135,-1172.6139 777.6623,-1186.7858 780.523,-1189.9686 790.6135,-1201.6139 797.435,-1209.4863 805.5013,-1217.2825 813.3416,-1224.2626"/>
<polygon fill="#000000" stroke="#000000" points="811.2025,-1227.0402 821.0523,-1230.9432 815.7863,-1221.7497 811.2025,-1227.0402"/>
</g>
<!-- 性别&#45;&gt;小限 -->
<g id="edge70" class="edge">
<title>性别&#45;&gt;小限</title>
<path fill="none" stroke="#000000" d="M589.7263,-1057.6372C629.0919,-1061.1497 698.9728,-1070.4871 753.6135,-1094.6139 757.0344,-1096.1243 788.2372,-1119.2224 813.4814,-1138.0846"/>
<polygon fill="#000000" stroke="#000000" points="811.6614,-1141.094 821.7653,-1144.2817 815.8545,-1135.4889 811.6614,-1141.094"/>
</g>
</g>
</svg>
