<?xml version="1.0" encoding="UTF-8" standalone="no"?>
<!DOCTYPE svg PUBLIC "-//W3C//DTD SVG 1.1//EN"
 "http://www.w3.org/Graphics/SVG/1.1/DTD/svg11.dtd">
<!-- Generated by graphviz version 2.40.1 (20161225.0304)
 -->
<!-- Title: doushu Pages: 1 -->
<svg width="397pt" height="720pt"
 viewBox="0.00 0.00 396.86 720.00" xmlns="http://www.w3.org/2000/svg" xmlns:xlink="http://www.w3.org/1999/xlink">
<g id="graph0" class="graph" transform="scale(.5157 .5157) rotate(0) translate(4 1392.2866)">
<title>doushu</title>
<polygon fill="#ffffff" stroke="transparent" points="-4,4 -4,-1392.2866 765.6338,-1392.2866 765.6338,4 -4,4"/>
<!-- 年干 -->
<g id="node1" class="node">
<title>年干</title>
<ellipse fill="none" stroke="#000000" cx="220.6633" cy="-950.9362" rx="31.8428" ry="31.8428"/>
<ellipse fill="none" stroke="#000000" cx="220.6633" cy="-950.9362" rx="35.8632" ry="35.8632"/>
<text text-anchor="middle" x="220.6633" y="-946.7362" font-family="Times,serif" font-size="14.00" fill="#000000">年干</text>
</g>
<!-- 五行局 -->
<g id="node17" class="node">
<title>五行局</title>
<ellipse fill="none" stroke="#000000" cx="518.9737" cy="-1206.9362" rx="41.1748" ry="41.1748"/>
<text text-anchor="middle" x="518.9737" y="-1202.7362" font-family="Times,serif" font-size="14.00" fill="#000000">五行局</text>
</g>
<!-- 年干&#45;&gt;五行局 -->
<g id="edge5" class="edge">
<title>年干&#45;&gt;五行局</title>
<path fill="none" stroke="#000000" d="M256.339,-953.1748C287.3423,-957.0682 331.1945,-967.6025 356.8494,-995.9362 406.0633,-1050.2886 345.2404,-1101.1726 392.8494,-1156.9362 411.8356,-1179.1744 442.0664,-1191.6025 468.1716,-1198.5054"/>
<polygon fill="#000000" stroke="#000000" points="467.398,-1201.9193 477.9426,-1200.8895 469.0573,-1195.1188 467.398,-1201.9193"/>
</g>
<!-- 阴阳 -->
<g id="node18" class="node">
<title>阴阳</title>
<ellipse fill="none" stroke="#000000" cx="518.9737" cy="-1110.9362" rx="37.1008" ry="37.1008"/>
<text text-anchor="middle" x="518.9737" y="-1106.7362" font-family="Times,serif" font-size="14.00" fill="#000000">阴阳</text>
</g>
<!-- 年干&#45;&gt;阴阳 -->
<g id="edge7" class="edge">
<title>年干&#45;&gt;阴阳</title>
<path fill="none" stroke="#000000" d="M256.1423,-955.1467C285.9676,-960.3033 328.2011,-971.5837 356.8494,-995.9362 383.204,-1018.3388 366.8406,-1042.133 392.8494,-1064.9362 415.1287,-1084.4694 446.3825,-1095.9463 472.2036,-1102.5513"/>
<polygon fill="#000000" stroke="#000000" points="471.6259,-1106.0117 482.1655,-1104.9315 473.2527,-1099.2033 471.6259,-1106.0117"/>
</g>
<!-- 禄存 -->
<g id="node27" class="node">
<title>禄存</title>
<ellipse fill="none" stroke="#000000" cx="518.9737" cy="-960.9362" rx="28.9754" ry="28.9754"/>
<text text-anchor="middle" x="518.9737" y="-956.7362" font-family="Times,serif" font-size="14.00" fill="#000000">禄存</text>
</g>
<!-- 年干&#45;&gt;禄存 -->
<g id="edge22" class="edge">
<title>年干&#45;&gt;禄存</title>
<path fill="none" stroke="#000000" d="M256.3502,-952.1325C312.5476,-954.0163 421.2634,-957.6607 479.6419,-959.6177"/>
<polygon fill="#000000" stroke="#000000" points="479.821,-963.1256 489.9327,-959.9626 480.0556,-956.1295 479.821,-963.1256"/>
</g>
<!-- 截空 -->
<g id="node30" class="node">
<title>截空</title>
<ellipse fill="none" stroke="#000000" cx="518.9737" cy="-885.9362" rx="28.6802" ry="28.6802"/>
<text text-anchor="middle" x="518.9737" y="-881.7362" font-family="Times,serif" font-size="14.00" fill="#000000">截空</text>
</g>
<!-- 年干&#45;&gt;截空 -->
<g id="edge32" class="edge">
<title>年干&#45;&gt;截空</title>
<path fill="none" stroke="#000000" d="M255.7605,-943.2887C312.1338,-931.0053 422.4253,-906.9735 480.7334,-894.2685"/>
<polygon fill="#000000" stroke="#000000" points="481.6254,-897.6563 490.651,-892.1075 480.1351,-890.8168 481.6254,-897.6563"/>
</g>
<!-- 旬空 -->
<g id="node31" class="node">
<title>旬空</title>
<ellipse fill="none" stroke="#000000" cx="518.9737" cy="-811.9362" rx="27.536" ry="27.536"/>
<text text-anchor="middle" x="518.9737" y="-807.7362" font-family="Times,serif" font-size="14.00" fill="#000000">旬空</text>
</g>
<!-- 年干&#45;&gt;旬空 -->
<g id="edge33" class="edge">
<title>年干&#45;&gt;旬空</title>
<path fill="none" stroke="#000000" d="M249.8687,-930.2141C283.1392,-907.3975 339.785,-870.9091 392.8494,-847.9362 421.6846,-835.4527 456.0786,-825.9674 481.661,-819.8751"/>
<polygon fill="#000000" stroke="#000000" points="482.7431,-823.2172 491.6956,-817.5512 481.1638,-816.3977 482.7431,-823.2172"/>
</g>
<!-- 年支 -->
<g id="node2" class="node">
<title>年支</title>
<ellipse fill="none" stroke="#000000" cx="220.6633" cy="-736.9362" rx="30.2152" ry="30.2152"/>
<ellipse fill="none" stroke="#000000" cx="220.6633" cy="-736.9362" rx="34.1976" ry="34.1976"/>
<text text-anchor="middle" x="220.6633" y="-732.7362" font-family="Times,serif" font-size="14.00" fill="#000000">年支</text>
</g>
<!-- 支系诸星 -->
<g id="node9" class="node">
<title>支系诸星</title>
<polygon fill="none" stroke="#000000" points="645.2224,-766.3375 392.725,-766.3375 392.725,-707.5348 645.2224,-707.5348 645.2224,-766.3375"/>
<text text-anchor="middle" x="518.9737" y="-749.5362" font-family="Times,serif" font-size="14.00" fill="#000000">支系诸星（天马、红鸾、天喜、</text>
<text text-anchor="middle" x="518.9737" y="-732.7362" font-family="Times,serif" font-size="14.00" fill="#000000">天哭、天虚、孤辰、寡宿、解神、龙池、</text>
<text text-anchor="middle" x="518.9737" y="-715.9362" font-family="Times,serif" font-size="14.00" fill="#000000">凤阁、蜚廉、破碎、天空、月德）</text>
</g>
<!-- 年支&#45;&gt;支系诸星 -->
<g id="edge24" class="edge">
<title>年支&#45;&gt;支系诸星</title>
<path fill="none" stroke="#000000" d="M255.1747,-736.9362C286.7467,-736.9362 335.5755,-736.9362 382.6806,-736.9362"/>
<polygon fill="#000000" stroke="#000000" points="382.6993,-740.4363 392.6993,-736.9362 382.6993,-733.4363 382.6993,-740.4363"/>
</g>
<!-- 流年将前十二星 -->
<g id="node12" class="node">
<title>流年将前十二星</title>
<polygon fill="none" stroke="#000000" points="566.4029,-689.9362 471.5445,-689.9362 471.5445,-653.9362 566.4029,-653.9362 566.4029,-689.9362"/>
<text text-anchor="middle" x="518.9737" y="-667.7362" font-family="Times,serif" font-size="14.00" fill="#000000">流年将前十二星</text>
</g>
<!-- 年支&#45;&gt;流年将前十二星 -->
<g id="edge36" class="edge">
<title>年支&#45;&gt;流年将前十二星</title>
<path fill="none" stroke="#000000" d="M254.3031,-729.4463C289.0008,-721.7363 344.6877,-709.4056 392.8494,-698.9362 415.2341,-694.0702 439.8688,-688.7816 461.3807,-684.1853"/>
<polygon fill="#000000" stroke="#000000" points="462.2962,-687.5688 471.345,-682.0581 460.8346,-680.7231 462.2962,-687.5688"/>
</g>
<!-- 流年岁前十二星 -->
<g id="node13" class="node">
<title>流年岁前十二星</title>
<polygon fill="none" stroke="#000000" points="568.4039,-635.9362 469.5436,-635.9362 469.5436,-599.9362 568.4039,-599.9362 568.4039,-635.9362"/>
<text text-anchor="middle" x="518.9737" y="-613.7362" font-family="Times,serif" font-size="14.00" fill="#000000">流年岁前十二星</text>
</g>
<!-- 年支&#45;&gt;流年岁前十二星 -->
<g id="edge37" class="edge">
<title>年支&#45;&gt;流年岁前十二星</title>
<path fill="none" stroke="#000000" d="M254.9488,-732.2237C284.2217,-726.8516 326.3106,-715.8074 356.8494,-693.9362 378.8197,-678.2015 370.1572,-659.6104 392.8494,-644.9362 412.58,-632.1771 437.3254,-625.3414 459.6599,-621.7168"/>
<polygon fill="#000000" stroke="#000000" points="460.3262,-625.157 469.7254,-620.2677 459.3287,-618.2285 460.3262,-625.157"/>
</g>
<!-- 天才 -->
<g id="node28" class="node">
<title>天才</title>
<ellipse fill="none" stroke="#000000" cx="518.9737" cy="-1031.9362" rx="24.085" ry="24.085"/>
<text text-anchor="middle" x="518.9737" y="-1027.7362" font-family="Times,serif" font-size="14.00" fill="#000000">天才</text>
</g>
<!-- 年支&#45;&gt;天才 -->
<g id="edge25" class="edge">
<title>年支&#45;&gt;天才</title>
<path fill="none" stroke="#000000" d="M244.8161,-761.729C274.3912,-793.1485 324.526,-849.9778 356.8494,-905.9362 379.0186,-944.3155 359.783,-969.4225 392.8494,-998.9362 418.0041,-1021.3881 456.5913,-1028.8844 484.4602,-1031.2282"/>
<polygon fill="#000000" stroke="#000000" points="484.3574,-1034.7289 494.566,-1031.8946 484.818,-1027.7441 484.3574,-1034.7289"/>
</g>
<!-- 天寿 -->
<g id="node29" class="node">
<title>天寿</title>
<ellipse fill="none" stroke="#000000" cx="518.9737" cy="-552.9362" rx="28.7386" ry="28.7386"/>
<text text-anchor="middle" x="518.9737" y="-548.7362" font-family="Times,serif" font-size="14.00" fill="#000000">天寿</text>
</g>
<!-- 年支&#45;&gt;天寿 -->
<g id="edge27" class="edge">
<title>年支&#45;&gt;天寿</title>
<path fill="none" stroke="#000000" d="M254.9455,-734.596C285.4431,-730.7482 329.3539,-720.6082 356.8494,-693.9362 391.6567,-660.1714 357.8201,-624.4705 392.8494,-590.9362 416.213,-568.5697 452.2571,-559.3183 479.8394,-555.5174"/>
<polygon fill="#000000" stroke="#000000" points="480.437,-558.9711 489.9523,-554.3116 479.6082,-552.0203 480.437,-558.9711"/>
</g>
<!-- 年支&#45;&gt;旬空 -->
<g id="edge34" class="edge">
<title>年支&#45;&gt;旬空</title>
<path fill="none" stroke="#000000" d="M254.015,-745.3213C310.2379,-759.4566 423.4638,-787.9234 482.0216,-802.6458"/>
<polygon fill="#000000" stroke="#000000" points="481.4023,-806.099 491.9539,-805.1429 483.1091,-799.3102 481.4023,-806.099"/>
</g>
<!-- 月 -->
<g id="node3" class="node">
<title>月</title>
<ellipse fill="none" stroke="#000000" cx="24.2386" cy="-546.9362" rx="18.0998" ry="18.0998"/>
<ellipse fill="none" stroke="#000000" cx="24.2386" cy="-546.9362" rx="22.0606" ry="22.0606"/>
<text text-anchor="middle" x="24.2386" y="-542.7362" font-family="Times,serif" font-size="14.00" fill="#000000">月</text>
</g>
<!-- 月系诸星 -->
<g id="node7" class="node">
<title>月系诸星</title>
<polygon fill="none" stroke="#000000" points="357.0358,-684.9362 84.2909,-684.9362 84.2909,-648.9362 357.0358,-648.9362 357.0358,-684.9362"/>
<text text-anchor="middle" x="220.6633" y="-662.7362" font-family="Times,serif" font-size="14.00" fill="#000000">月系诸星（天刑、天姚、天巫、天月、阴煞）</text>
</g>
<!-- 月&#45;&gt;月系诸星 -->
<g id="edge13" class="edge">
<title>月&#45;&gt;月系诸星</title>
<path fill="none" stroke="#000000" d="M32.0372,-567.8718C41.1999,-589.4469 58.5249,-622.3381 84.4772,-639.9362 86.6592,-641.4157 88.9033,-642.8182 91.2003,-644.1474"/>
<polygon fill="#000000" stroke="#000000" points="89.8206,-647.3759 100.3025,-648.9193 93.0709,-641.1762 89.8206,-647.3759"/>
</g>
<!-- 命宫 -->
<g id="node15" class="node">
<title>命宫</title>
<ellipse fill="none" stroke="#000000" cx="220.6633" cy="-1042.9362" rx="38.2663" ry="38.2663"/>
<text text-anchor="middle" x="220.6633" y="-1038.7362" font-family="Times,serif" font-size="14.00" fill="#000000">命宫</text>
</g>
<!-- 月&#45;&gt;命宫 -->
<g id="edge1" class="edge">
<title>月&#45;&gt;命宫</title>
<path fill="none" stroke="#000000" d="M25.8738,-569.3839C32.34,-655.6223 57.1097,-962.5001 84.4772,-995.9362 105.8051,-1021.9933 142.364,-1033.6424 172.2361,-1038.8312"/>
<polygon fill="#000000" stroke="#000000" points="172.0711,-1042.3469 182.4874,-1040.4101 173.1367,-1035.4285 172.0711,-1042.3469"/>
</g>
<!-- 身宫 -->
<g id="node16" class="node">
<title>身宫</title>
<ellipse fill="none" stroke="#000000" cx="220.6633" cy="-591.9362" rx="38.8249" ry="38.8249"/>
<text text-anchor="middle" x="220.6633" y="-587.7362" font-family="Times,serif" font-size="14.00" fill="#000000">身宫</text>
</g>
<!-- 月&#45;&gt;身宫 -->
<g id="edge2" class="edge">
<title>月&#45;&gt;身宫</title>
<path fill="none" stroke="#000000" d="M46.01,-551.9239C76.3972,-558.8854 132.3344,-571.7004 172.731,-580.9551"/>
<polygon fill="#000000" stroke="#000000" points="172.1124,-584.404 182.6415,-583.2255 173.6756,-577.5807 172.1124,-584.404"/>
</g>
<!-- 左辅 -->
<g id="node21" class="node">
<title>左辅</title>
<ellipse fill="none" stroke="#000000" cx="220.6633" cy="-502.9362" rx="32.2726" ry="32.2726"/>
<text text-anchor="middle" x="220.6633" y="-498.7362" font-family="Times,serif" font-size="14.00" fill="#000000">左辅</text>
</g>
<!-- 月&#45;&gt;左辅 -->
<g id="edge11" class="edge">
<title>月&#45;&gt;左辅</title>
<path fill="none" stroke="#000000" d="M46.01,-542.0593C77.9626,-534.9018 138.1654,-521.4161 178.8448,-512.3037"/>
<polygon fill="#000000" stroke="#000000" points="179.7442,-515.689 188.7373,-510.0877 178.214,-508.8583 179.7442,-515.689"/>
</g>
<!-- 右弼 -->
<g id="node22" class="node">
<title>右弼</title>
<ellipse fill="none" stroke="#000000" cx="220.6633" cy="-409.9362" rx="42.3433" ry="42.3433"/>
<text text-anchor="middle" x="220.6633" y="-405.7362" font-family="Times,serif" font-size="14.00" fill="#000000">右弼</text>
</g>
<!-- 月&#45;&gt;右弼 -->
<g id="edge12" class="edge">
<title>月&#45;&gt;右弼</title>
<path fill="none" stroke="#000000" d="M34.034,-526.8021C44.2397,-507.7206 61.8926,-479.4463 84.4772,-461.9362 109.327,-442.6699 142.1333,-429.8563 169.3202,-421.7702"/>
<polygon fill="#000000" stroke="#000000" points="170.3955,-425.1033 179.0571,-419.0018 168.4811,-418.3701 170.3955,-425.1033"/>
</g>
<!-- 子年斗君 -->
<g id="node32" class="node">
<title>子年斗君</title>
<ellipse fill="none" stroke="#000000" cx="220.6633" cy="-239.9362" rx="42.8615" ry="42.8615"/>
<text text-anchor="middle" x="220.6633" y="-235.7362" font-family="Times,serif" font-size="14.00" fill="#000000">子年斗君</text>
</g>
<!-- 月&#45;&gt;子年斗君 -->
<g id="edge38" class="edge">
<title>月&#45;&gt;子年斗君</title>
<path fill="none" stroke="#000000" d="M26.7766,-524.6865C33.5287,-469.0931 53.5553,-326.0652 84.4772,-290.9362 105.7411,-266.7792 139.5945,-254.0346 168.228,-247.3265"/>
<polygon fill="#000000" stroke="#000000" points="169.0711,-250.7252 178.1091,-245.1967 167.5961,-243.8824 169.0711,-250.7252"/>
</g>
<!-- 日 -->
<g id="node4" class="node">
<title>日</title>
<ellipse fill="none" stroke="#000000" cx="220.6633" cy="-324.9362" rx="20.8568" ry="20.8568"/>
<ellipse fill="none" stroke="#000000" cx="220.6633" cy="-324.9362" rx="24.8884" ry="24.8884"/>
<text text-anchor="middle" x="220.6633" y="-320.7362" font-family="Times,serif" font-size="14.00" fill="#000000">日</text>
</g>
<!-- 三台 -->
<g id="node23" class="node">
<title>三台</title>
<ellipse fill="none" stroke="#000000" cx="518.9737" cy="-440.9362" rx="26.1462" ry="26.1462"/>
<text text-anchor="middle" x="518.9737" y="-436.7362" font-family="Times,serif" font-size="14.00" fill="#000000">三台</text>
</g>
<!-- 日&#45;&gt;三台 -->
<g id="edge15" class="edge">
<title>日&#45;&gt;三台</title>
<path fill="none" stroke="#000000" d="M245.2171,-328.1876C273.2345,-332.541 319.9443,-341.7836 356.8494,-358.9362 374.7473,-367.2546 375.7381,-375.1008 392.8494,-384.9362 422.6869,-402.0863 458.7511,-417.622 484.6593,-427.9551"/>
<polygon fill="#000000" stroke="#000000" points="483.4703,-431.2484 494.0574,-431.6531 486.0335,-424.7345 483.4703,-431.2484"/>
</g>
<!-- 八座 -->
<g id="node24" class="node">
<title>八座</title>
<ellipse fill="none" stroke="#000000" cx="518.9737" cy="-343.9362" rx="32.4473" ry="32.4473"/>
<text text-anchor="middle" x="518.9737" y="-339.7362" font-family="Times,serif" font-size="14.00" fill="#000000">八座</text>
</g>
<!-- 日&#45;&gt;八座 -->
<g id="edge17" class="edge">
<title>日&#45;&gt;八座</title>
<path fill="none" stroke="#000000" d="M245.3291,-326.5072C296.2381,-329.7497 413.4614,-337.2159 476.698,-341.2435"/>
<polygon fill="#000000" stroke="#000000" points="476.5342,-344.7401 486.7365,-341.8829 476.9792,-337.7543 476.5342,-344.7401"/>
</g>
<!-- 恩光 -->
<g id="node25" class="node">
<title>恩光</title>
<ellipse fill="none" stroke="#000000" cx="518.9737" cy="-201.9362" rx="24.6909" ry="24.6909"/>
<text text-anchor="middle" x="518.9737" y="-197.7362" font-family="Times,serif" font-size="14.00" fill="#000000">恩光</text>
</g>
<!-- 日&#45;&gt;恩光 -->
<g id="edge19" class="edge">
<title>日&#45;&gt;恩光</title>
<path fill="none" stroke="#000000" d="M245.3762,-321.0142C273.1369,-316.1394 319.2314,-306.6244 356.8494,-291.9362 405.5685,-272.9134 457.7458,-241.7882 489.3707,-221.5828"/>
<polygon fill="#000000" stroke="#000000" points="491.6084,-224.3043 498.1122,-215.9406 487.8122,-218.423 491.6084,-224.3043"/>
</g>
<!-- 天贵 -->
<g id="node26" class="node">
<title>天贵</title>
<ellipse fill="none" stroke="#000000" cx="518.9737" cy="-103.9362" rx="27.5554" ry="27.5554"/>
<text text-anchor="middle" x="518.9737" y="-99.7362" font-family="Times,serif" font-size="14.00" fill="#000000">天贵</text>
</g>
<!-- 日&#45;&gt;天贵 -->
<g id="edge21" class="edge">
<title>日&#45;&gt;天贵</title>
<path fill="none" stroke="#000000" d="M245.5247,-325.9478C275.8224,-325.7809 326.6939,-320.7695 356.8494,-291.9362 398.3271,-252.2771 356.2372,-212.1264 392.8494,-167.9362 415.9012,-140.1131 454.1241,-123.13 482.4609,-113.7179"/>
<polygon fill="#000000" stroke="#000000" points="483.5468,-117.0455 492.0306,-110.6992 481.4409,-110.3698 483.5468,-117.0455"/>
</g>
<!-- 时 -->
<g id="node5" class="node">
<title>时</title>
<ellipse fill="none" stroke="#000000" cx="24.2386" cy="-196.9362" rx="20.4398" ry="20.4398"/>
<ellipse fill="none" stroke="#000000" cx="24.2386" cy="-196.9362" rx="24.4796" ry="24.4796"/>
<text text-anchor="middle" x="24.2386" y="-192.7362" font-family="Times,serif" font-size="14.00" fill="#000000">时</text>
</g>
<!-- 时系诸星 -->
<g id="node14" class="node">
<title>时系诸星</title>
<polygon fill="none" stroke="#000000" points="348.7089,-109.9362 92.6177,-109.9362 92.6177,-73.9362 348.7089,-73.9362 348.7089,-109.9362"/>
<text text-anchor="middle" x="220.6633" y="-87.7362" font-family="Times,serif" font-size="14.00" fill="#000000">时系诸星（地劫、地空、台辅、封诰）</text>
</g>
<!-- 时&#45;&gt;时系诸星 -->
<g id="edge10" class="edge">
<title>时&#45;&gt;时系诸星</title>
<path fill="none" stroke="#000000" d="M35.2416,-175.1995C45.5007,-157.2315 62.5118,-132.5382 84.4772,-118.9362 87.1076,-117.3073 89.8167,-115.7739 92.5898,-114.3304"/>
<polygon fill="#000000" stroke="#000000" points="94.121,-117.478 101.6463,-110.0201 91.1127,-111.1573 94.121,-117.478"/>
</g>
<!-- 时&#45;&gt;命宫 -->
<g id="edge3" class="edge">
<title>时&#45;&gt;命宫</title>
<path fill="none" stroke="#000000" d="M26.1017,-221.348C30.176,-274.7577 40.1779,-405.9989 48.4772,-515.9362 52.5033,-569.2675 51.8267,-953.5759 84.4772,-995.9362 105.1922,-1022.8114 142.1975,-1034.4014 172.41,-1039.3592"/>
<polygon fill="#000000" stroke="#000000" points="171.9642,-1042.831 182.3623,-1040.7987 172.9664,-1035.9031 171.9642,-1042.831"/>
</g>
<!-- 时&#45;&gt;身宫 -->
<g id="edge4" class="edge">
<title>时&#45;&gt;身宫</title>
<path fill="none" stroke="#000000" d="M25.3331,-221.2673C28.9782,-291.854 42.9253,-494.7946 84.4772,-543.9362 106.1238,-569.5365 142.3187,-581.4889 171.9548,-587.0664"/>
<polygon fill="#000000" stroke="#000000" points="171.686,-590.5705 182.1294,-588.7852 172.8521,-583.6683 171.686,-590.5705"/>
</g>
<!-- 文昌 -->
<g id="node19" class="node">
<title>文昌</title>
<ellipse fill="none" stroke="#000000" cx="220.6633" cy="-153.9362" rx="25.5439" ry="25.5439"/>
<text text-anchor="middle" x="220.6633" y="-149.7362" font-family="Times,serif" font-size="14.00" fill="#000000">文昌</text>
</g>
<!-- 时&#45;&gt;文昌 -->
<g id="edge8" class="edge">
<title>时&#45;&gt;文昌</title>
<path fill="none" stroke="#000000" d="M47.932,-191.7494C82.287,-184.2286 146.1539,-170.2473 185.8622,-161.5546"/>
<polygon fill="#000000" stroke="#000000" points="186.6272,-164.9701 195.6473,-159.4125 185.1302,-158.132 186.6272,-164.9701"/>
</g>
<!-- 文曲 -->
<g id="node20" class="node">
<title>文曲</title>
<ellipse fill="none" stroke="#000000" cx="220.6633" cy="-27.9362" rx="27.8725" ry="27.8725"/>
<text text-anchor="middle" x="220.6633" y="-23.7362" font-family="Times,serif" font-size="14.00" fill="#000000">文曲</text>
</g>
<!-- 时&#45;&gt;文曲 -->
<g id="edge9" class="edge">
<title>时&#45;&gt;文曲</title>
<path fill="none" stroke="#000000" d="M28.7122,-172.9441C35.5186,-143.2173 51.3541,-93.0614 84.4772,-64.9362 111.9591,-41.601 152.8437,-32.8673 182.643,-29.6591"/>
<polygon fill="#000000" stroke="#000000" points="183.0417,-33.1373 192.6809,-28.7399 182.4033,-26.1665 183.0417,-33.1373"/>
</g>
<!-- 时&#45;&gt;子年斗君 -->
<g id="edge39" class="edge">
<title>时&#45;&gt;子年斗君</title>
<path fill="none" stroke="#000000" d="M47.932,-202.123C77.6876,-208.6369 129.5819,-219.9972 168.7436,-228.5702"/>
<polygon fill="#000000" stroke="#000000" points="168.1409,-232.0211 178.658,-230.7406 169.6379,-225.183 168.1409,-232.0211"/>
</g>
<!-- 性别 -->
<g id="node6" class="node">
<title>性别</title>
<ellipse fill="none" stroke="#000000" cx="518.9737" cy="-1353.9362" rx="30.2188" ry="30.2188"/>
<ellipse fill="none" stroke="#000000" cx="518.9737" cy="-1353.9362" rx="34.2014" ry="34.2014"/>
<text text-anchor="middle" x="518.9737" y="-1349.7362" font-family="Times,serif" font-size="14.00" fill="#000000">性别</text>
</g>
<!-- 长生十二星 -->
<g id="node10" class="node">
<title>长生十二星</title>
<polygon fill="none" stroke="#000000" points="761.4031,-1224.9362 681.3288,-1224.9362 681.3288,-1188.9362 761.4031,-1188.9362 761.4031,-1224.9362"/>
<text text-anchor="middle" x="721.3659" y="-1202.7362" font-family="Times,serif" font-size="14.00" fill="#000000">长生十二星</text>
</g>
<!-- 性别&#45;&gt;长生十二星 -->
<g id="edge31" class="edge">
<title>性别&#45;&gt;长生十二星</title>
<path fill="none" stroke="#000000" d="M552.9141,-1348.1938C579.9127,-1342.329 617.5924,-1331.1306 645.098,-1310.9362 672.6992,-1290.6716 694.5408,-1257.5045 707.6543,-1234.082"/>
<polygon fill="#000000" stroke="#000000" points="710.8808,-1235.4742 712.5697,-1225.0148 704.7269,-1232.138 710.8808,-1235.4742"/>
</g>
<!-- 天伤、天使 -->
<g id="node8" class="node">
<title>天伤、天使</title>
<polygon fill="none" stroke="#000000" points="562.598,-1301.9362 475.3494,-1301.9362 475.3494,-1265.9362 562.598,-1265.9362 562.598,-1301.9362"/>
<text text-anchor="middle" x="518.9737" y="-1279.7362" font-family="Times,serif" font-size="14.00" fill="#000000">天伤、天使</text>
</g>
<!-- 博士十二星 -->
<g id="node11" class="node">
<title>博士十二星</title>
<polygon fill="none" stroke="#000000" points="760.5808,-978.9362 682.151,-978.9362 682.151,-942.9362 760.5808,-942.9362 760.5808,-978.9362"/>
<text text-anchor="middle" x="721.3659" y="-956.7362" font-family="Times,serif" font-size="14.00" fill="#000000">博士十二星</text>
</g>
<!-- 命宫&#45;&gt;天伤、天使 -->
<g id="edge35" class="edge">
<title>命宫&#45;&gt;天伤、天使</title>
<path fill="none" stroke="#000000" d="M238.3,-1077.2211C264.9467,-1125.3805 320.1724,-1212.1701 392.8494,-1256.9362 414.4402,-1270.2352 441.609,-1277.0518 465.1961,-1280.5186"/>
<polygon fill="#000000" stroke="#000000" points="465.0342,-1284.027 475.4025,-1281.8478 465.9382,-1277.0856 465.0342,-1284.027"/>
</g>
<!-- 命宫&#45;&gt;五行局 -->
<g id="edge6" class="edge">
<title>命宫&#45;&gt;五行局</title>
<path fill="none" stroke="#000000" d="M251.199,-1065.981C284.7218,-1090.5937 340.7278,-1129.7267 392.8494,-1156.9362 417.5328,-1169.8218 446.3137,-1181.4686 470.1447,-1190.2731"/>
<polygon fill="#000000" stroke="#000000" points="469.0952,-1193.6157 479.6893,-1193.7462 471.4889,-1187.0376 469.0952,-1193.6157"/>
</g>
<!-- 命宫&#45;&gt;天才 -->
<g id="edge26" class="edge">
<title>命宫&#45;&gt;天才</title>
<path fill="none" stroke="#000000" d="M259.0515,-1041.5206C317.5935,-1039.3619 428.2897,-1035.2801 484.441,-1033.2095"/>
<polygon fill="#000000" stroke="#000000" points="484.7252,-1036.7015 494.5894,-1032.8353 484.4672,-1029.7063 484.7252,-1036.7015"/>
</g>
<!-- 身宫&#45;&gt;天寿 -->
<g id="edge28" class="edge">
<title>身宫&#45;&gt;天寿</title>
<path fill="none" stroke="#000000" d="M259.0515,-586.9174C316.0857,-579.461 422.622,-565.5328 479.9955,-558.032"/>
<polygon fill="#000000" stroke="#000000" points="480.6513,-561.4762 490.1132,-556.7093 479.7438,-554.5352 480.6513,-561.4762"/>
</g>
<!-- 五行局&#45;&gt;长生十二星 -->
<g id="edge29" class="edge">
<title>五行局&#45;&gt;长生十二星</title>
<path fill="none" stroke="#000000" d="M560.4192,-1206.9362C592.3854,-1206.9362 636.7444,-1206.9362 670.7991,-1206.9362"/>
<polygon fill="#000000" stroke="#000000" points="671.0119,-1210.4363 681.0118,-1206.9362 671.0118,-1203.4363 671.0119,-1210.4363"/>
</g>
<!-- 阴阳&#45;&gt;长生十二星 -->
<g id="edge30" class="edge">
<title>阴阳&#45;&gt;长生十二星</title>
<path fill="none" stroke="#000000" d="M554.679,-1121.5226C580.4462,-1129.7413 615.724,-1142.1991 645.098,-1156.9362 659.9572,-1164.391 675.4576,-1174.142 688.5735,-1183.0514"/>
<polygon fill="#000000" stroke="#000000" points="686.6017,-1185.9432 696.8175,-1188.752 690.583,-1180.1857 686.6017,-1185.9432"/>
</g>
<!-- 文昌&#45;&gt;恩光 -->
<g id="edge18" class="edge">
<title>文昌&#45;&gt;恩光</title>
<path fill="none" stroke="#000000" d="M246.0971,-158.0286C299.5299,-166.6263 423.5128,-186.5759 484.2211,-196.3443"/>
<polygon fill="#000000" stroke="#000000" points="484.0138,-199.8558 494.4429,-197.989 485.1259,-192.9447 484.0138,-199.8558"/>
</g>
<!-- 文曲&#45;&gt;天贵 -->
<g id="edge20" class="edge">
<title>文曲&#45;&gt;天贵</title>
<path fill="none" stroke="#000000" d="M247.9272,-34.8821C301.6334,-48.5648 421.1658,-79.0178 481.9464,-94.5028"/>
<polygon fill="#000000" stroke="#000000" points="481.3265,-97.9566 491.8811,-97.0338 483.0547,-91.1733 481.3265,-97.9566"/>
</g>
<!-- 左辅&#45;&gt;三台 -->
<g id="edge14" class="edge">
<title>左辅&#45;&gt;三台</title>
<path fill="none" stroke="#000000" d="M252.5878,-496.3011C308.5953,-484.6606 424.1774,-460.6384 482.9532,-448.4226"/>
<polygon fill="#000000" stroke="#000000" points="483.822,-451.8169 492.9006,-446.3551 482.3976,-444.9633 483.822,-451.8169"/>
</g>
<!-- 右弼&#45;&gt;八座 -->
<g id="edge16" class="edge">
<title>右弼&#45;&gt;八座</title>
<path fill="none" stroke="#000000" d="M262.1421,-400.7591C318.9607,-388.1883 420.4164,-365.7416 477.3242,-353.1509"/>
<polygon fill="#000000" stroke="#000000" points="478.4032,-356.497 487.4109,-350.9193 476.891,-349.6622 478.4032,-356.497"/>
</g>
<!-- 禄存&#45;&gt;博士十二星 -->
<g id="edge23" class="edge">
<title>禄存&#45;&gt;博士十二星</title>
<path fill="none" stroke="#000000" d="M547.9716,-960.9362C580.2801,-960.9362 633.0754,-960.9362 671.9346,-960.9362"/>
<polygon fill="#000000" stroke="#000000" points="671.9938,-964.4363 681.9938,-960.9362 671.9937,-957.4363 671.9938,-964.4363"/>
</g>
</g>
</svg>
