<?xml version="1.0" encoding="UTF-8" standalone="no"?>
<!DOCTYPE svg PUBLIC "-//W3C//DTD SVG 1.1//EN"
 "http://www.w3.org/Graphics/SVG/1.1/DTD/svg11.dtd">
<!-- Generated by graphviz version 2.40.1 (20161225.0304)
 -->
<!-- Title: doushu Pages: 1 -->
<svg width="576pt" height="556pt"
 viewBox="0.00 0.00 576.00 556.27" xmlns="http://www.w3.org/2000/svg" xmlns:xlink="http://www.w3.org/1999/xlink">
<g id="graph0" class="graph" transform="scale(.6737 .6737) rotate(0) translate(4 821.7459)">
<title>doushu</title>
<polygon fill="#ffffff" stroke="transparent" points="-4,4 -4,-821.7459 851.0304,-821.7459 851.0304,4 -4,4"/>
<!-- 年干 -->
<g id="node1" class="node">
<title>年干</title>
<ellipse fill="none" stroke="#000000" cx="156.3577" cy="-646.4214" rx="31.8428" ry="31.8428"/>
<ellipse fill="none" stroke="#000000" cx="156.3577" cy="-646.4214" rx="35.8632" ry="35.8632"/>
<text text-anchor="middle" x="156.3577" y="-642.2214" font-family="Times,serif" font-size="14.00" fill="#000000">年干</text>
</g>
<!-- 干系诸星（擎羊、陀罗、天魁、天钺等） -->
<g id="node9" class="node">
<title>干系诸星（擎羊、陀罗、天魁、天钺等）</title>
<polygon fill="none" stroke="#000000" points="525.8109,-599.4214 244.0825,-599.4214 244.0825,-563.4214 525.8109,-563.4214 525.8109,-599.4214"/>
<text text-anchor="middle" x="384.9467" y="-577.2214" font-family="Times,serif" font-size="14.00" fill="#000000">干系诸星（擎羊、陀罗、天魁、天钺等）</text>
</g>
<!-- 年干&#45;&gt;干系诸星（擎羊、陀罗、天魁、天钺等） -->
<g id="edge31" class="edge">
<title>年干&#45;&gt;干系诸星（擎羊、陀罗、天魁、天钺等）</title>
<path fill="none" stroke="#000000" d="M188.5958,-630.4189C204.8861,-622.8588 225.1532,-614.2387 244.0146,-608.4214 251.6306,-606.0724 259.544,-603.8888 267.5616,-601.866"/>
<polygon fill="#000000" stroke="#000000" points="268.4904,-605.2422 277.38,-599.4781 266.8361,-598.4405 268.4904,-605.2422"/>
</g>
<!-- 四化（化科、化权、化禄、化忌） -->
<g id="node10" class="node">
<title>四化（化科、化权、化禄、化忌）</title>
<polygon fill="none" stroke="#000000" points="487.7493,-545.4214 282.1441,-545.4214 282.1441,-509.4214 487.7493,-509.4214 487.7493,-545.4214"/>
<text text-anchor="middle" x="384.9467" y="-523.2214" font-family="Times,serif" font-size="14.00" fill="#000000">四化（化科、化权、化禄、化忌）</text>
</g>
<!-- 年干&#45;&gt;四化（化科、化权、化禄、化忌） -->
<g id="edge32" class="edge">
<title>年干&#45;&gt;四化（化科、化权、化禄、化忌）</title>
<path fill="none" stroke="#000000" d="M184.3751,-623.8085C192.3178,-616.9287 200.7689,-609.1385 208.0146,-601.4214 226.0251,-582.2389 221.627,-568.2468 244.0146,-554.4214 252.8491,-548.9656 262.5427,-544.5706 272.5814,-541.0357"/>
<polygon fill="#000000" stroke="#000000" points="273.8519,-544.3036 282.2952,-537.9035 271.7036,-537.6413 273.8519,-544.3036"/>
</g>
<!-- 寅首 -->
<g id="node14" class="node">
<title>寅首</title>
<ellipse fill="none" stroke="#000000" cx="384.9467" cy="-728.4214" rx="35.3947" ry="35.3947"/>
<text text-anchor="middle" x="384.9467" y="-724.2214" font-family="Times,serif" font-size="14.00" fill="#000000">寅首</text>
</g>
<!-- 年干&#45;&gt;寅首 -->
<g id="edge1" class="edge">
<title>年干&#45;&gt;寅首</title>
<path fill="none" stroke="#000000" d="M188.9049,-661.514C205.2712,-668.8506 225.513,-677.5451 244.0146,-684.4214 276.0054,-696.3109 312.843,-707.7354 340.8316,-715.9623"/>
<polygon fill="#000000" stroke="#000000" points="340.1375,-719.4055 350.7175,-718.8435 342.0962,-712.6851 340.1375,-719.4055"/>
</g>
<!-- 五行局 -->
<g id="node19" class="node">
<title>五行局</title>
<ellipse fill="none" stroke="#000000" cx="384.9467" cy="-358.4214" rx="41.1748" ry="41.1748"/>
<text text-anchor="middle" x="384.9467" y="-354.2214" font-family="Times,serif" font-size="14.00" fill="#000000">五行局</text>
</g>
<!-- 年干&#45;&gt;五行局 -->
<g id="edge8" class="edge">
<title>年干&#45;&gt;五行局</title>
<path fill="none" stroke="#000000" d="M186.1095,-626.3757C194.3856,-619.4048 202.5843,-610.9212 208.0146,-601.4214 251.3168,-525.6669 187.3269,-474.7564 244.0146,-408.4214 266.2899,-382.3551 303.091,-369.8764 333.5015,-363.9032"/>
<polygon fill="#000000" stroke="#000000" points="334.3075,-367.3148 343.5395,-362.1166 333.0809,-360.4231 334.3075,-367.3148"/>
</g>
<!-- 阴阳 -->
<g id="node20" class="node">
<title>阴阳</title>
<ellipse fill="none" stroke="#000000" cx="384.9467" cy="-454.4214" rx="37.1008" ry="37.1008"/>
<text text-anchor="middle" x="384.9467" y="-450.2214" font-family="Times,serif" font-size="14.00" fill="#000000">阴阳</text>
</g>
<!-- 年干&#45;&gt;阴阳 -->
<g id="edge10" class="edge">
<title>年干&#45;&gt;阴阳</title>
<path fill="none" stroke="#000000" d="M185.4761,-625.5831C193.6292,-618.6361 201.9186,-610.3648 208.0146,-601.4214 234.855,-562.0436 209.8671,-533.6624 244.0146,-500.4214 269.2001,-475.9044 307.6198,-464.4544 337.9873,-459.107"/>
<polygon fill="#000000" stroke="#000000" points="338.623,-462.5499 347.9464,-457.5175 337.5197,-455.6374 338.623,-462.5499"/>
</g>
<!-- 禄存 -->
<g id="node33" class="node">
<title>禄存</title>
<ellipse fill="none" stroke="#000000" cx="384.9467" cy="-646.4214" rx="28.9754" ry="28.9754"/>
<text text-anchor="middle" x="384.9467" y="-642.2214" font-family="Times,serif" font-size="14.00" fill="#000000">禄存</text>
</g>
<!-- 年干&#45;&gt;禄存 -->
<g id="edge30" class="edge">
<title>年干&#45;&gt;禄存</title>
<path fill="none" stroke="#000000" d="M192.0747,-646.4214C233.8358,-646.4214 302.7235,-646.4214 345.8761,-646.4214"/>
<polygon fill="#000000" stroke="#000000" points="345.9958,-649.9215 355.9957,-646.4214 345.9957,-642.9215 345.9958,-649.9215"/>
</g>
<!-- 年支 -->
<g id="node2" class="node">
<title>年支</title>
<ellipse fill="none" stroke="#000000" cx="34.3504" cy="-477.4214" rx="30.2152" ry="30.2152"/>
<ellipse fill="none" stroke="#000000" cx="34.3504" cy="-477.4214" rx="34.1976" ry="34.1976"/>
<text text-anchor="middle" x="34.3504" y="-473.2214" font-family="Times,serif" font-size="14.00" fill="#000000">年支</text>
</g>
<!-- 火星、铃星 -->
<g id="node11" class="node">
<title>火星、铃星</title>
<polygon fill="none" stroke="#000000" points="195.8269,-422.4214 116.8885,-422.4214 116.8885,-386.4214 195.8269,-386.4214 195.8269,-422.4214"/>
<text text-anchor="middle" x="156.3577" y="-400.2214" font-family="Times,serif" font-size="14.00" fill="#000000">火星、铃星</text>
</g>
<!-- 年支&#45;&gt;火星、铃星 -->
<g id="edge27" class="edge">
<title>年支&#45;&gt;火星、铃星</title>
<path fill="none" stroke="#000000" d="M62.7038,-457.9789C75.3742,-449.5269 90.6021,-439.6888 104.7008,-431.4214 106.9158,-430.1225 109.1993,-428.8158 111.5158,-427.5156"/>
<polygon fill="#000000" stroke="#000000" points="113.4571,-430.4428 120.5401,-422.5635 110.0895,-424.306 113.4571,-430.4428"/>
</g>
<!-- 身主 -->
<g id="node35" class="node">
<title>身主</title>
<ellipse fill="none" stroke="#000000" cx="156.3577" cy="-477.4214" rx="36.5173" ry="36.5173"/>
<text text-anchor="middle" x="156.3577" y="-473.2214" font-family="Times,serif" font-size="14.00" fill="#000000">身主</text>
</g>
<!-- 年支&#45;&gt;身主 -->
<g id="edge34" class="edge">
<title>年支&#45;&gt;身主</title>
<path fill="none" stroke="#000000" d="M68.9864,-477.4214C81.5619,-477.4214 95.9884,-477.4214 109.4469,-477.4214"/>
<polygon fill="#000000" stroke="#000000" points="109.5033,-480.9215 119.5032,-477.4214 109.5032,-473.9215 109.5033,-480.9215"/>
</g>
<!-- 小限 -->
<g id="node37" class="node">
<title>小限</title>
<ellipse fill="none" stroke="#000000" cx="156.3577" cy="-562.4214" rx="30.1583" ry="30.1583"/>
<text text-anchor="middle" x="156.3577" y="-558.2214" font-family="Times,serif" font-size="14.00" fill="#000000">小限</text>
</g>
<!-- 年支&#45;&gt;小限 -->
<g id="edge39" class="edge">
<title>年支&#45;&gt;小限</title>
<path fill="none" stroke="#000000" d="M62.648,-497.1357C80.7175,-509.7244 104.2224,-526.0997 123.171,-539.3009"/>
<polygon fill="#000000" stroke="#000000" points="121.3148,-542.2733 131.5206,-545.1179 125.3163,-536.5297 121.3148,-542.2733"/>
</g>
<!-- 月 -->
<g id="node3" class="node">
<title>月</title>
<ellipse fill="none" stroke="#000000" cx="34.3504" cy="-180.4214" rx="18.0998" ry="18.0998"/>
<ellipse fill="none" stroke="#000000" cx="34.3504" cy="-180.4214" rx="22.0606" ry="22.0606"/>
<text text-anchor="middle" x="34.3504" y="-176.2214" font-family="Times,serif" font-size="14.00" fill="#000000">月</text>
</g>
<!-- 左辅、右弼 -->
<g id="node13" class="node">
<title>左辅、右弼</title>
<polygon fill="none" stroke="#000000" points="208.172,-124.4214 104.5434,-124.4214 104.5434,-88.4214 208.172,-88.4214 208.172,-124.4214"/>
<text text-anchor="middle" x="156.3577" y="-102.2214" font-family="Times,serif" font-size="14.00" fill="#000000">左辅、右弼</text>
</g>
<!-- 月&#45;&gt;左辅、右弼 -->
<g id="edge29" class="edge">
<title>月&#45;&gt;左辅、右弼</title>
<path fill="none" stroke="#000000" d="M52.518,-167.5002C66.5229,-157.7332 86.5081,-144.2108 104.7008,-133.4214 106.9094,-132.1115 109.1877,-130.7961 111.5001,-129.489"/>
<polygon fill="#000000" stroke="#000000" points="113.4469,-132.4124 120.5136,-124.5186 110.0666,-126.2826 113.4469,-132.4124"/>
</g>
<!-- 命宫 -->
<g id="node16" class="node">
<title>命宫</title>
<ellipse fill="none" stroke="#000000" cx="156.3577" cy="-180.4214" rx="38.2663" ry="38.2663"/>
<text text-anchor="middle" x="156.3577" y="-176.2214" font-family="Times,serif" font-size="14.00" fill="#000000">命宫</text>
</g>
<!-- 月&#45;&gt;命宫 -->
<g id="edge3" class="edge">
<title>月&#45;&gt;命宫</title>
<path fill="none" stroke="#000000" d="M56.7284,-180.4214C70.9902,-180.4214 90.0369,-180.4214 107.6552,-180.4214"/>
<polygon fill="#000000" stroke="#000000" points="107.8167,-183.9215 117.8166,-180.4214 107.8166,-176.9215 107.8167,-183.9215"/>
</g>
<!-- 身宫 -->
<g id="node18" class="node">
<title>身宫</title>
<ellipse fill="none" stroke="#000000" cx="156.3577" cy="-275.4214" rx="38.8249" ry="38.8249"/>
<text text-anchor="middle" x="156.3577" y="-271.2214" font-family="Times,serif" font-size="14.00" fill="#000000">身宫</text>
</g>
<!-- 月&#45;&gt;身宫 -->
<g id="edge5" class="edge">
<title>月&#45;&gt;身宫</title>
<path fill="none" stroke="#000000" d="M52.0913,-194.2352C69.2036,-207.5595 95.6733,-228.17 117.6599,-245.2897"/>
<polygon fill="#000000" stroke="#000000" points="115.7976,-248.2755 125.8382,-251.6576 120.0982,-242.7523 115.7976,-248.2755"/>
</g>
<!-- 日 -->
<g id="node4" class="node">
<title>日</title>
<ellipse fill="none" stroke="#000000" cx="384.9467" cy="-48.4214" rx="20.8568" ry="20.8568"/>
<ellipse fill="none" stroke="#000000" cx="384.9467" cy="-48.4214" rx="24.8884" ry="24.8884"/>
<text text-anchor="middle" x="384.9467" y="-44.2214" font-family="Times,serif" font-size="14.00" fill="#000000">日</text>
</g>
<!-- 紫微 -->
<g id="node7" class="node">
<title>紫微</title>
<ellipse fill="none" stroke="#000000" cx="596.769" cy="-209.4214" rx="30.7933" ry="30.7933"/>
<ellipse fill="none" stroke="#000000" cx="596.769" cy="-209.4214" rx="34.7808" ry="34.7808"/>
<text text-anchor="middle" x="596.769" y="-205.2214" font-family="Times,serif" font-size="14.00" fill="#000000">紫微</text>
</g>
<!-- 日&#45;&gt;紫微 -->
<g id="edge12" class="edge">
<title>日&#45;&gt;紫微</title>
<path fill="none" stroke="#000000" d="M409.9014,-48.5716C440.2308,-49.9724 491.5951,-56.4016 525.8788,-82.4214 553.4974,-103.3826 571.8831,-138.3948 582.9946,-166.3546"/>
<polygon fill="#000000" stroke="#000000" points="579.803,-167.8091 586.6247,-175.9156 586.3472,-165.3244 579.803,-167.8091"/>
</g>
<!-- 时 -->
<g id="node5" class="node">
<title>时</title>
<ellipse fill="none" stroke="#000000" cx="34.3504" cy="-312.4214" rx="20.4398" ry="20.4398"/>
<ellipse fill="none" stroke="#000000" cx="34.3504" cy="-312.4214" rx="24.4796" ry="24.4796"/>
<text text-anchor="middle" x="34.3504" y="-308.2214" font-family="Times,serif" font-size="14.00" fill="#000000">时</text>
</g>
<!-- 时&#45;&gt;火星、铃星 -->
<g id="edge28" class="edge">
<title>时&#45;&gt;火星、铃星</title>
<path fill="none" stroke="#000000" d="M51.1616,-330.3661C64.7628,-344.2632 84.8537,-363.4386 104.7008,-377.4214 106.5156,-378.6999 108.3986,-379.9576 110.325,-381.1886"/>
<polygon fill="#000000" stroke="#000000" points="108.5987,-384.2347 118.9705,-386.3972 112.211,-378.2387 108.5987,-384.2347"/>
</g>
<!-- 文昌、文曲 -->
<g id="node12" class="node">
<title>文昌、文曲</title>
<polygon fill="none" stroke="#000000" points="192.7212,-368.4214 119.9942,-368.4214 119.9942,-332.4214 192.7212,-332.4214 192.7212,-368.4214"/>
<text text-anchor="middle" x="156.3577" y="-346.2214" font-family="Times,serif" font-size="14.00" fill="#000000">文昌、文曲</text>
</g>
<!-- 时&#45;&gt;文昌、文曲 -->
<g id="edge26" class="edge">
<title>时&#45;&gt;文昌、文曲</title>
<path fill="none" stroke="#000000" d="M57.5862,-319.6583C72.4036,-324.2733 92.1221,-330.4147 110.0426,-335.9962"/>
<polygon fill="#000000" stroke="#000000" points="109.1824,-339.3941 119.7709,-339.0261 111.264,-332.7107 109.1824,-339.3941"/>
</g>
<!-- 时&#45;&gt;命宫 -->
<g id="edge6" class="edge">
<title>时&#45;&gt;命宫</title>
<path fill="none" stroke="#000000" d="M49.2565,-292.8569C63.0141,-275.1881 84.3357,-248.7637 104.7008,-227.4214 109.4248,-222.4707 114.5765,-217.4185 119.7378,-212.5503"/>
<polygon fill="#000000" stroke="#000000" points="122.3013,-214.9465 127.2578,-205.5825 117.5437,-209.8118 122.3013,-214.9465"/>
</g>
<!-- 时&#45;&gt;身宫 -->
<g id="edge7" class="edge">
<title>时&#45;&gt;身宫</title>
<path fill="none" stroke="#000000" d="M57.5862,-305.3748C72.287,-300.9167 91.8119,-294.9955 109.6189,-289.5954"/>
<polygon fill="#000000" stroke="#000000" points="110.7396,-292.913 119.2934,-286.6615 108.708,-286.2143 110.7396,-292.913"/>
</g>
<!-- 性别 -->
<g id="node6" class="node">
<title>性别</title>
<ellipse fill="none" stroke="#000000" cx="34.3504" cy="-677.4214" rx="30.2188" ry="30.2188"/>
<ellipse fill="none" stroke="#000000" cx="34.3504" cy="-677.4214" rx="34.2014" ry="34.2014"/>
<text text-anchor="middle" x="34.3504" y="-673.2214" font-family="Times,serif" font-size="14.00" fill="#000000">性别</text>
</g>
<!-- 大限 -->
<g id="node36" class="node">
<title>大限</title>
<ellipse fill="none" stroke="#000000" cx="596.769" cy="-406.4214" rx="31.8827" ry="31.8827"/>
<text text-anchor="middle" x="596.769" y="-402.2214" font-family="Times,serif" font-size="14.00" fill="#000000">大限</text>
</g>
<!-- 性别&#45;&gt;大限 -->
<g id="edge38" class="edge">
<title>性别&#45;&gt;大限</title>
<path fill="none" stroke="#000000" d="M62.913,-696.9623C145.0965,-750.5627 385.2486,-888.4266 525.8788,-772.4214 550.8778,-751.7998 580.1507,-539.4273 591.709,-447.9579"/>
<polygon fill="#000000" stroke="#000000" points="595.1938,-448.2967 592.9651,-437.939 588.2482,-447.4258 595.1938,-448.2967"/>
</g>
<!-- 性别&#45;&gt;小限 -->
<g id="edge40" class="edge">
<title>性别&#45;&gt;小限</title>
<path fill="none" stroke="#000000" d="M56.7251,-651.0002C70.0459,-635.8598 87.6335,-616.8598 104.7008,-601.4214 110.4301,-596.2388 116.8077,-591.0271 123.0722,-586.1757"/>
<polygon fill="#000000" stroke="#000000" points="125.6099,-588.6446 131.4731,-579.82 121.3866,-583.0622 125.6099,-588.6446"/>
</g>
<!-- 天府 -->
<g id="node8" class="node">
<title>天府</title>
<ellipse fill="none" stroke="#000000" cx="701.2225" cy="-411.4214" rx="25.8415" ry="25.8415"/>
<ellipse fill="none" stroke="#000000" cx="701.2225" cy="-411.4214" rx="29.8302" ry="29.8302"/>
<text text-anchor="middle" x="701.2225" y="-407.2214" font-family="Times,serif" font-size="14.00" fill="#000000">天府</text>
</g>
<!-- 紫微&#45;&gt;天府 -->
<g id="edge13" class="edge">
<title>紫微&#45;&gt;天府</title>
<path fill="none" stroke="#000000" d="M607.6396,-242.6772C619.6212,-276.9305 640.8064,-331.1319 667.6592,-373.4214 669.5082,-376.3332 671.5776,-379.2441 673.7566,-382.0859"/>
<polygon fill="#000000" stroke="#000000" points="671.0621,-384.32 680.0956,-389.856 676.4861,-379.8949 671.0621,-384.32"/>
</g>
<!-- 太阳 -->
<g id="node21" class="node">
<title>太阳</title>
<ellipse fill="none" stroke="#000000" cx="701.2225" cy="-330.4214" rx="33.6266" ry="33.6266"/>
<text text-anchor="middle" x="701.2225" y="-326.2214" font-family="Times,serif" font-size="14.00" fill="#000000">太阳</text>
</g>
<!-- 紫微&#45;&gt;太阳 -->
<g id="edge14" class="edge">
<title>紫微&#45;&gt;太阳</title>
<path fill="none" stroke="#000000" d="M619.6918,-235.9753C635.2096,-253.9513 655.8306,-277.8389 672.4513,-297.0925"/>
<polygon fill="#000000" stroke="#000000" points="669.8856,-299.4766 679.0696,-304.7592 675.1844,-294.9024 669.8856,-299.4766"/>
</g>
<!-- 武曲 -->
<g id="node22" class="node">
<title>武曲</title>
<ellipse fill="none" stroke="#000000" cx="701.2225" cy="-247.4214" rx="31.3027" ry="31.3027"/>
<text text-anchor="middle" x="701.2225" y="-243.2214" font-family="Times,serif" font-size="14.00" fill="#000000">武曲</text>
</g>
<!-- 紫微&#45;&gt;武曲 -->
<g id="edge15" class="edge">
<title>紫微&#45;&gt;武曲</title>
<path fill="none" stroke="#000000" d="M629.8188,-221.4448C640.1606,-225.2071 651.6675,-229.3933 662.3708,-233.2872"/>
<polygon fill="#000000" stroke="#000000" points="661.3239,-236.6307 671.918,-236.7604 663.7171,-230.0525 661.3239,-236.6307"/>
</g>
<!-- 天机 -->
<g id="node23" class="node">
<title>天机</title>
<ellipse fill="none" stroke="#000000" cx="701.2225" cy="-172.4214" rx="25.8302" ry="25.8302"/>
<text text-anchor="middle" x="701.2225" y="-168.2214" font-family="Times,serif" font-size="14.00" fill="#000000">天机</text>
</g>
<!-- 紫微&#45;&gt;天机 -->
<g id="edge16" class="edge">
<title>紫微&#45;&gt;天机</title>
<path fill="none" stroke="#000000" d="M629.8188,-197.7143C641.6791,-193.5131 655.0717,-188.7691 667.0273,-184.5341"/>
<polygon fill="#000000" stroke="#000000" points="668.4094,-187.7577 676.6668,-181.1196 666.072,-181.1595 668.4094,-187.7577"/>
</g>
<!-- 天同 -->
<g id="node24" class="node">
<title>天同</title>
<ellipse fill="none" stroke="#000000" cx="701.2225" cy="-104.4214" rx="24.085" ry="24.085"/>
<text text-anchor="middle" x="701.2225" y="-100.2214" font-family="Times,serif" font-size="14.00" fill="#000000">天同</text>
</g>
<!-- 紫微&#45;&gt;天同 -->
<g id="edge17" class="edge">
<title>紫微&#45;&gt;天同</title>
<path fill="none" stroke="#000000" d="M621.2755,-184.332C634.8837,-170.4504 652.1488,-152.921 667.6592,-137.4214 670.5042,-134.5784 673.4959,-131.6087 676.4727,-128.6663"/>
<polygon fill="#000000" stroke="#000000" points="679.0833,-131.0075 683.7495,-121.4955 674.17,-126.0215 679.0833,-131.0075"/>
</g>
<!-- 廉贞 -->
<g id="node25" class="node">
<title>廉贞</title>
<ellipse fill="none" stroke="#000000" cx="701.2225" cy="-31.4214" rx="31.3429" ry="31.3429"/>
<text text-anchor="middle" x="701.2225" y="-27.2214" font-family="Times,serif" font-size="14.00" fill="#000000">廉贞</text>
</g>
<!-- 紫微&#45;&gt;廉贞 -->
<g id="edge18" class="edge">
<title>紫微&#45;&gt;廉贞</title>
<path fill="none" stroke="#000000" d="M610.7601,-177.3307C623.853,-148.6148 644.7828,-105.8604 667.6592,-71.4214 669.5731,-68.5401 671.6621,-65.6292 673.8314,-62.7614"/>
<polygon fill="#000000" stroke="#000000" points="676.6259,-64.8701 680.0794,-54.8539 671.1335,-60.5304 676.6259,-64.8701"/>
</g>
<!-- 太阴 -->
<g id="node26" class="node">
<title>太阴</title>
<ellipse fill="none" stroke="#000000" cx="808.9081" cy="-669.4214" rx="31.2988" ry="31.2988"/>
<text text-anchor="middle" x="808.9081" y="-665.2214" font-family="Times,serif" font-size="14.00" fill="#000000">太阴</text>
</g>
<!-- 天府&#45;&gt;太阴 -->
<g id="edge19" class="edge">
<title>天府&#45;&gt;太阴</title>
<path fill="none" stroke="#000000" d="M706.2635,-441.0258C714.6344,-484.6623 734.2184,-567.7379 770.7858,-629.4214 773.1049,-633.3334 775.8724,-637.1682 778.8427,-640.8203"/>
<polygon fill="#000000" stroke="#000000" points="776.3443,-643.2795 785.5737,-648.4824 781.6033,-638.6596 776.3443,-643.2795"/>
</g>
<!-- 贪狼 -->
<g id="node27" class="node">
<title>贪狼</title>
<ellipse fill="none" stroke="#000000" cx="808.9081" cy="-582.4214" rx="38.245" ry="38.245"/>
<text text-anchor="middle" x="808.9081" y="-578.2214" font-family="Times,serif" font-size="14.00" fill="#000000">贪狼</text>
</g>
<!-- 天府&#45;&gt;贪狼 -->
<g id="edge20" class="edge">
<title>天府&#45;&gt;贪狼</title>
<path fill="none" stroke="#000000" d="M714.6208,-438.3258C727.7877,-463.9835 749.0202,-503.3571 770.7858,-535.4214 773.0124,-538.7015 775.4109,-542.0359 777.8822,-545.3372"/>
<polygon fill="#000000" stroke="#000000" points="775.2408,-547.6434 784.1188,-553.4254 780.7842,-543.369 775.2408,-547.6434"/>
</g>
<!-- 巨门 -->
<g id="node28" class="node">
<title>巨门</title>
<ellipse fill="none" stroke="#000000" cx="808.9081" cy="-490.4214" rx="35.7449" ry="35.7449"/>
<text text-anchor="middle" x="808.9081" y="-486.2214" font-family="Times,serif" font-size="14.00" fill="#000000">巨门</text>
</g>
<!-- 天府&#45;&gt;巨门 -->
<g id="edge21" class="edge">
<title>天府&#45;&gt;巨门</title>
<path fill="none" stroke="#000000" d="M725.3892,-429.1505C738.9928,-439.1303 756.2717,-451.8064 771.579,-463.0361"/>
<polygon fill="#000000" stroke="#000000" points="769.7111,-466.0066 779.8444,-469.0997 773.8517,-460.3625 769.7111,-466.0066"/>
</g>
<!-- 天相 -->
<g id="node29" class="node">
<title>天相</title>
<ellipse fill="none" stroke="#000000" cx="808.9081" cy="-411.4214" rx="24.6871" ry="24.6871"/>
<text text-anchor="middle" x="808.9081" y="-407.2214" font-family="Times,serif" font-size="14.00" fill="#000000">天相</text>
</g>
<!-- 天府&#45;&gt;天相 -->
<g id="edge22" class="edge">
<title>天府&#45;&gt;天相</title>
<path fill="none" stroke="#000000" d="M731.2189,-411.4214C744.4104,-411.4214 759.995,-411.4214 773.7302,-411.4214"/>
<polygon fill="#000000" stroke="#000000" points="773.8029,-414.9215 783.8029,-411.4214 773.8028,-407.9215 773.8029,-414.9215"/>
</g>
<!-- 天梁 -->
<g id="node30" class="node">
<title>天梁</title>
<ellipse fill="none" stroke="#000000" cx="808.9081" cy="-342.4214" rx="26.4135" ry="26.4135"/>
<text text-anchor="middle" x="808.9081" y="-338.2214" font-family="Times,serif" font-size="14.00" fill="#000000">天梁</text>
</g>
<!-- 天府&#45;&gt;天梁 -->
<g id="edge23" class="edge">
<title>天府&#45;&gt;天梁</title>
<path fill="none" stroke="#000000" d="M726.47,-395.2439C741.7859,-385.4301 761.4507,-372.8299 777.7325,-362.3972"/>
<polygon fill="#000000" stroke="#000000" points="779.8492,-365.1978 786.3808,-356.8558 776.0727,-359.304 779.8492,-365.1978"/>
</g>
<!-- 七杀 -->
<g id="node31" class="node">
<title>七杀</title>
<ellipse fill="none" stroke="#000000" cx="808.9081" cy="-271.4214" rx="26.1462" ry="26.1462"/>
<text text-anchor="middle" x="808.9081" y="-267.2214" font-family="Times,serif" font-size="14.00" fill="#000000">七杀</text>
</g>
<!-- 天府&#45;&gt;七杀 -->
<g id="edge24" class="edge">
<title>天府&#45;&gt;七杀</title>
<path fill="none" stroke="#000000" d="M721.9726,-389.6044C726.4277,-384.4735 730.9458,-378.899 734.7858,-373.4214 753.9658,-346.0613 750.3872,-333.8853 770.7858,-307.4214 773.8215,-303.483 777.2974,-299.5862 780.8875,-295.8927"/>
<polygon fill="#000000" stroke="#000000" points="783.5991,-298.137 788.3124,-288.6483 778.7106,-293.1267 783.5991,-298.137"/>
</g>
<!-- 破军 -->
<g id="node32" class="node">
<title>破军</title>
<ellipse fill="none" stroke="#000000" cx="808.9081" cy="-201.4214" rx="25.5439" ry="25.5439"/>
<text text-anchor="middle" x="808.9081" y="-197.2214" font-family="Times,serif" font-size="14.00" fill="#000000">破军</text>
</g>
<!-- 天府&#45;&gt;破军 -->
<g id="edge25" class="edge">
<title>天府&#45;&gt;破军</title>
<path fill="none" stroke="#000000" d="M722.9965,-390.2334C727.3985,-385.0698 731.6362,-379.3231 734.7858,-373.4214 764.4268,-317.8798 738.2819,-290.3376 770.7858,-236.4214 773.4995,-231.92 776.9636,-227.6482 780.6936,-223.7361"/>
<polygon fill="#000000" stroke="#000000" points="783.2548,-226.1298 788.0665,-216.6906 778.4187,-221.0689 783.2548,-226.1298"/>
</g>
<!-- 天干 -->
<g id="node15" class="node">
<title>天干</title>
<ellipse fill="none" stroke="#000000" cx="596.769" cy="-728.4214" rx="28.1594" ry="28.1594"/>
<text text-anchor="middle" x="596.769" y="-724.2214" font-family="Times,serif" font-size="14.00" fill="#000000">天干</text>
</g>
<!-- 寅首&#45;&gt;天干 -->
<g id="edge2" class="edge">
<title>寅首&#45;&gt;天干</title>
<path fill="none" stroke="#000000" d="M420.401,-728.4214C458.4838,-728.4214 518.8096,-728.4214 558.0936,-728.4214"/>
<polygon fill="#000000" stroke="#000000" points="558.3349,-731.9215 568.3349,-728.4214 558.3348,-724.9215 558.3349,-731.9215"/>
</g>
<!-- 十二宫 -->
<g id="node17" class="node">
<title>十二宫</title>
<ellipse fill="none" stroke="#000000" cx="384.9467" cy="-131.4214" rx="40.0108" ry="40.0108"/>
<text text-anchor="middle" x="384.9467" y="-127.2214" font-family="Times,serif" font-size="14.00" fill="#000000">十二宫</text>
</g>
<!-- 命宫&#45;&gt;十二宫 -->
<g id="edge4" class="edge">
<title>命宫&#45;&gt;十二宫</title>
<path fill="none" stroke="#000000" d="M193.8486,-172.3849C232.5443,-164.0901 293.1004,-151.1094 335.6516,-141.9882"/>
<polygon fill="#000000" stroke="#000000" points="336.4734,-145.3916 345.5177,-139.8733 335.0062,-138.5471 336.4734,-145.3916"/>
</g>
<!-- 命宫&#45;&gt;五行局 -->
<g id="edge9" class="edge">
<title>命宫&#45;&gt;五行局</title>
<path fill="none" stroke="#000000" d="M186.5013,-204.2319C194.1253,-211.1756 201.8808,-219.1394 208.0146,-227.4214 230.2592,-257.4566 216.6737,-277.9378 244.0146,-303.4214 268.9352,-326.649 304.7819,-340.4584 334.0855,-348.4306"/>
<polygon fill="#000000" stroke="#000000" points="333.5928,-351.9175 344.149,-351.0129 335.3327,-345.1372 333.5928,-351.9175"/>
</g>
<!-- 命主 -->
<g id="node34" class="node">
<title>命主</title>
<ellipse fill="none" stroke="#000000" cx="384.9467" cy="-225.4214" rx="35.9589" ry="35.9589"/>
<text text-anchor="middle" x="384.9467" y="-221.2214" font-family="Times,serif" font-size="14.00" fill="#000000">命主</text>
</g>
<!-- 命宫&#45;&gt;命主 -->
<g id="edge33" class="edge">
<title>命宫&#45;&gt;命主</title>
<path fill="none" stroke="#000000" d="M193.8486,-187.8018C233.7169,-195.6503 296.7906,-208.0669 339.4691,-216.4686"/>
<polygon fill="#000000" stroke="#000000" points="338.8302,-219.91 349.3179,-218.4075 340.1823,-213.0418 338.8302,-219.91"/>
</g>
<!-- 命宫&#45;&gt;大限 -->
<g id="edge35" class="edge">
<title>命宫&#45;&gt;大限</title>
<path fill="none" stroke="#000000" d="M185.4294,-205.6095C192.977,-212.4864 200.9628,-220.0728 208.0146,-227.4214 225.2721,-245.4051 222.1879,-258.3868 244.0146,-270.4214 354.7099,-331.455 417.4125,-243.5091 525.8788,-308.4214 549.2127,-322.3857 567.0796,-347.2996 579.0396,-368.5118"/>
<polygon fill="#000000" stroke="#000000" points="575.9717,-370.1968 583.8024,-377.3335 582.1313,-366.8712 575.9717,-370.1968"/>
</g>
<!-- 五行局&#45;&gt;紫微 -->
<g id="edge11" class="edge">
<title>五行局&#45;&gt;紫微</title>
<path fill="none" stroke="#000000" d="M420.9672,-337.987C450.0442,-321.0097 491.6093,-295.6376 525.8788,-270.4214 538.5233,-261.1173 551.7287,-250.1398 563.2677,-240.0802"/>
<polygon fill="#000000" stroke="#000000" points="565.7774,-242.5336 570.9626,-233.2943 561.1474,-237.2834 565.7774,-242.5336"/>
</g>
<!-- 五行局&#45;&gt;大限 -->
<g id="edge36" class="edge">
<title>五行局&#45;&gt;大限</title>
<path fill="none" stroke="#000000" d="M425.2874,-367.5628C462.702,-376.0411 518.1154,-388.5981 555.7467,-397.1255"/>
<polygon fill="#000000" stroke="#000000" points="555.333,-400.6204 565.8593,-399.4171 556.8801,-393.7935 555.333,-400.6204"/>
</g>
<!-- 阴阳&#45;&gt;大限 -->
<g id="edge37" class="edge">
<title>阴阳&#45;&gt;大限</title>
<path fill="none" stroke="#000000" d="M421.3602,-446.1699C458.7132,-437.7055 516.7148,-424.562 555.6857,-415.731"/>
<polygon fill="#000000" stroke="#000000" points="556.6698,-419.0968 565.649,-413.4733 555.1228,-412.2699 556.6698,-419.0968"/>
</g>
</g>
</svg>
